<svg id="Layer_1" data-name="Layer 1" xmlns="http://www.w3.org/2000/svg" viewBox="0 0 281.2 328.65"><defs><style>.cls-1{fill:#0f2544;}</style></defs><title>kosher</title><polygon class="cls-1" points="46.49 241.43 31.09 241.43 23.77 272.53 23.77 241.43 7.35 241.43 7.35 321.48 23.77 321.48 23.77 287.17 30.42 321.48 47.39 321.48 37.07 277.57 46.49 241.43"/><path class="cls-1" d="M82.9,248.15a16,16,0,0,0-6.49-6.3,19.45,19.45,0,0,0-9.11-2.1A19.05,19.05,0,0,0,57.94,242a16.44,16.44,0,0,0-6.38,6.38,22.45,22.45,0,0,0-2.81,9.17q-.45,5-.44,17.08v13.7q0,12.36.46,17.31a22.1,22.1,0,0,0,2.93,9.14,16,16,0,0,0,6.49,6.3,19.36,19.36,0,0,0,9.11,2.11,19,19,0,0,0,9.36-2.23A16.31,16.31,0,0,0,83,314.55a22.36,22.36,0,0,0,2.81-9.17q.45-5,.45-17.08V274.6q0-12.35-.47-17.3A22,22,0,0,0,82.9,248.15Zm-13,50.63a50,50,0,0,1-.47,9,2.12,2.12,0,0,1-2.15,1.88A2,2,0,0,1,65.18,308q-.45-1.64-.45-8.6V262c0-4.12.22-6.6.68-7.44a2.13,2.13,0,0,1,2-1.26,2,2,0,0,1,2,1.55,31.5,31.5,0,0,1,.49,7.15Z"/><path class="cls-1" d="M111.92,270.41q-3.83-2.87-4.64-4.89a16.34,16.34,0,0,1-.86-6,10.83,10.83,0,0,1,.77-4.65,2.4,2.4,0,0,1,2.24-1.53,2,2,0,0,1,1.95,1.13c.39.76.59,2.52.59,5.29v5.94h15.25v-3.17q0-9.54-1.46-13.52a12.88,12.88,0,0,0-6-6.6,21.34,21.34,0,0,0-10.91-2.62,19.63,19.63,0,0,0-10,2.39,14,14,0,0,0-6,6.65q-1.86,4.26-1.85,13.45a35.19,35.19,0,0,0,1.3,10.48,18.46,18.46,0,0,0,3.3,6.44,81.73,81.73,0,0,0,8.11,7.46q6.14,5.08,7.69,7.27t1.52,9.24a11.47,11.47,0,0,1-.8,4.85,2.58,2.58,0,0,1-2.44,1.63,2.33,2.33,0,0,1-2.28-1.29q-.64-1.27-.64-5.78V292.8H91.56V298q0,9,1.45,13.89a14.55,14.55,0,0,0,6.1,8.06,19.57,19.57,0,0,0,11.26,3.17,19.92,19.92,0,0,0,10.53-2.75,13.94,13.94,0,0,0,6.1-6.8q1.59-4,1.58-12.6,0-11.77-2.84-17.06T111.92,270.41Z"/><polygon class="cls-1" points="155.07 270.06 150.15 270.06 150.15 241.43 133.73 241.43 133.73 321.48 150.15 321.48 150.15 287.86 155.07 287.86 155.07 321.48 171.49 321.48 171.49 241.43 155.07 241.43 155.07 270.06"/><polygon class="cls-1" points="194.51 287.86 204.76 287.86 204.76 272.63 194.51 272.63 194.51 257.45 205.47 257.45 205.47 241.43 178.08 241.43 178.08 321.48 206.56 321.48 206.56 305.46 194.51 305.46 194.51 287.86"/><path class="cls-1" d="M211.28,241.43v80.05H227.7v-36.1c2.26,0,3.66.52,4.2,1.54s.79,3.67.79,8v26.6H248V300.36a95.09,95.09,0,0,0-.41-11.84,13.59,13.59,0,0,0-2.09-4.72q-1.68-2.57-6.55-4.1c3.58-.43,6-1.72,7.21-3.86s1.84-6.33,1.84-12.56q0-10.23-2.6-14.9t-6.71-5.81q-4.11-1.14-15.74-1.14Zm16.42,13.69c1.9,0,3.21.4,3.92,1.19s1.07,2.46,1.07,5v4.4c0,3.52-.37,5.61-1.11,6.25a6,6,0,0,1-3.88,1Z"/><path class="cls-1" d="M281.2,0A344.9,344.9,0,0,0,244,16H0V328.65H255.3V22.56C264.21,14.39,272.89,6.87,281.2,0ZM242.05,17q-7.35,3.73-14.85,8C161.07,62.86,121.4,115,99.65,150.31c0,0-53.49-51.83-98.65-57.38V17ZM254.3,327.65H1V93.25a286,286,0,0,1,37.76,34.58c35.17,38.54,52.93,79.26,62.2,107.54A651.39,651.39,0,0,1,254.3,23.47Z"/></svg>