<svg id="Layer_1" data-name="Layer 1" xmlns="http://www.w3.org/2000/svg" xmlns:xlink="http://www.w3.org/1999/xlink" viewBox="0 0 435.76 435.76"><defs><style>.cls-1,.cls-3{fill:none;}.cls-2{fill:#fff;}.cls-3{stroke:#221f20;stroke-miterlimit:10;}.cls-4{fill:#539b7f;}.cls-5{clip-path:url(#clip-path);}.cls-6{fill:#00815a;}.cls-7{fill:#6b3c16;}</style><clipPath id="clip-path"><path class="cls-1" d="M29.63,217.88c0,104,84.29,188.25,188.25,188.25s188.25-84.28,188.25-188.25Z"/></clipPath></defs><title>organic</title><path class="cls-2" d="M430.94,217.88c0,117.91-95.59,213.5-213.5,213.5S3.94,335.79,3.94,217.88,99.53,4.38,217.44,4.38s213.5,95.59,213.5,213.5"/><circle class="cls-3" cx="217.44" cy="217.88" r="213.5"/><path class="cls-4" d="M406.13,217.88c0,104-84.28,188.25-188.25,188.25S29.63,321.85,29.63,217.88h376.5"/><g class="cls-5"><polygon class="cls-6" points="406.13 217.88 20.88 217.88 36.57 279.81 406.13 217.88"/><polygon class="cls-6" points="406.13 217.88 40.02 288.82 71.63 345.18 406.13 217.88"/><polygon class="cls-6" points="406.13 217.88 80.83 351.65 138.36 394.54 406.13 217.88"/><polygon class="cls-6" points="406.13 217.88 150.28 398.63 230.64 417.63 406.13 217.88"/><polygon class="cls-6" points="406.13 217.88 251.05 409.86 399.19 408.8 406.13 217.88"/></g><path class="cls-7" d="M217.88,435.76A217.9,217.9,0,0,1,0,217.88C0,97.74,97.74,0,217.88,0A217.88,217.88,0,0,1,372,371.94,216.43,216.43,0,0,1,217.88,435.76Zm0-418.33c-110.53,0-200.45,89.92-200.45,200.45s89.92,200.45,200.45,200.45,200.45-89.92,200.45-200.45S328.41,17.43,217.88,17.43Z"/><path class="cls-6" d="M105.61,113.59H124.7V175c0,3.9,1.2,7.26,6.62,7.26,5,0,6.5-4.34,6.5-7.81V113.59h19.09v58.89c0,13.78-6.18,24.4-25.7,24.4-16.16,0-25.6-7.7-25.6-24.4V113.59"/><path class="cls-6" d="M180.77,167.71v5.75c0,4.66,1.52,8.78,7.6,8.78,4.44,0,6.39-4,6.39-8.13,0-6.84-5.64-9.44-10.63-12.48-5.85-3.36-10.84-6.5-14.42-10.62s-5.53-9.11-5.53-16.27c0-15.29,9.22-23.1,24-23.1,16.59,0,25,11.06,24.18,26.35H194.76c-.21-4.77,0-11.28-6.29-11.71-3.9-.33-6.18,1.84-6.61,5.42-.54,4.88,1.95,7.38,5.75,10,7.15,4.55,13.34,7.37,17.78,11.5s7.05,9.54,7.05,19.41c0,15.62-8.67,24.29-24.51,24.29-17.46,0-24.83-9.76-24.83-20.49v-8.68h17.67"/><path class="cls-6" d="M246.28,194.93c5.86,0,11.93-.54,16.92-3.8,5.53-3.47,8-9.43,8.13-17.56V137.45c0-7.81-1.19-15.73-8.56-20.07-6.18-3.57-14.54-3.79-21.48-3.79H220.58v81.34h25.7m-6.61-66.7c9.32.22,12.47.76,12.58,10.31v26.57c.32,10.84.21,16-12.58,15.18Z"/><path class="cls-6" d="M296.06,194.93l2.28-15.83h15L316,194.93h19.3l-17.68-81.34h-23l-17.79,81.34Zm15.4-30.15H300.4l5.53-36.44h.22Z"/><path class="cls-2" d="M113.7,259.14c0-11.72-6.76-18.22-19.28-18.22s-19.52,6.5-19.52,18.22V284c0,13.74,5,20.9,19.52,20.9s19.28-7.16,19.28-20.9V259.14m-14.32,26c0,3.49-.33,8.7-5,8.7s-5.21-5.21-5.21-8.7V260.11c0-3.74.57-8.22,5.13-8.22s5,4.48,5,8.22Z"/><path class="cls-2" d="M134.6,279.31h4.72c3.33.24,4.47,2.68,4.88,6.42s.08,8.79.32,14.16a12.75,12.75,0,0,0,.82,3.5H161v-.82a5.35,5.35,0,0,1-1.38-2.12c-.81-3.9-.89-14.39-1.3-19.27-.24-4.23-3.09-7-7.08-7.89v-.16c6-2.77,7.57-7.4,7.57-13.91,0-12.12-5.86-16.84-17.57-16.84H120.28v61H134.6V279.31m0-25.95c7-.16,10,.16,10,7.4,0,3.75-1,7.57-5.12,7.57H134.6Z"/><path class="cls-2" d="M194,303.47l-.65-5.45h-.17c-2.92,5.2-6.18,6.83-12.36,6.83-12.12,0-16-8.38-16-19.44V260.36c0-13.26,6.1-19.44,19.2-19.44,12.2,0,19.44,5.2,19.44,17.65v4.55H189.1v-3.33c0-5.21-.65-7.81-4.48-7.9-4.47-.08-5.53,2.36-5.53,6.35v30.18c0,3.42,1.55,5.45,5.29,5.45,4.88,0,5-3.9,5-7.81v-4.8H184.3v-11h19.44v33.19H194"/><path class="cls-2" d="M222.45,303.39l1.7-11.88h11.23l2,11.88h14.47l-13.26-61H221.39l-13.34,61ZM234,280.77h-8.3l4.15-27.33H230Z"/><polygon class="cls-2" points="268.49 269.22 268.33 269.38 269.63 303.39 256.04 303.39 256.04 242.38 270.76 242.38 281.83 276.46 282.07 276.46 280.69 242.38 294.27 242.38 294.27 303.39 279.63 303.39 268.49 269.22"/><rect class="cls-2" x="301.92" y="242.38" width="14.32" height="61.01"/><path class="cls-2" d="M348,263.69v-3.9c0-5.21-1.88-7.9-4.56-7.9-4.47-.08-5.53,2.36-5.53,6.35l-.08,30.18c0,3.42,1.38,5.45,5.12,5.45,4.88,0,5.29-5.05,5.29-8.79v-5.53h14.32V287c0,10.49-6,17.81-20.66,17.81-13.18,0-18.3-7-18.3-19.44V260.36c0-13.26,6.1-19.44,19.19-19.44,12.2,0,19.53,5.2,19.53,17.65v5.12H348"/></svg>