<?xml version="1.0" encoding="utf-8"?>
<!-- Generator: Adobe Illustrator 23.1.1, SVG Export Plug-In . SVG Version: 6.00 Build 0)  -->
<svg version="1.1" id="Layer_1" xmlns="http://www.w3.org/2000/svg" xmlns:xlink="http://www.w3.org/1999/xlink" x="0px" y="0px"
	 viewBox="0 0 288.6 211.5" style="enable-background:new 0 0 288.6 211.5;" xml:space="preserve">
<style type="text/css">
	.st0{fill:#FFFFFF;}
	.st1{fill:#FFFFFF;stroke:#FFFFFF;stroke-width:1.4978;}
	.st2{fill:#38862E;stroke:#38862E;stroke-width:0.2565;}
	.st3{fill:none;}
	.st4{fill:#93C0E6;}
	.st5{fill:#1C1C1A;}
	.st6{fill:#0B4486;}
	.st7{fill:#38862E;}
	.st8{fill:#EF8A15;}
</style>
<title>non-gmo</title>
<g id="XMLID_1_">
	<g id="Logo_art">
		<path id="XMLID_252_" class="st0" d="M161.1,15.8h9.8l13.9,22.7h0.1V15.8h7.2v32.7h-9.4l-14.2-23.3h-0.1v23.3h-7.2L161.1,15.8z"/>
		<path id="XMLID_249_" class="st0" d="M198.5,32.2c0-2.4,0.4-4.9,1.3-7.1c0.8-2,2.1-3.9,3.7-5.4c1.6-1.5,3.5-2.7,5.6-3.4
			c4.6-1.6,9.6-1.6,14.1,0c2.1,0.8,4,1.9,5.6,3.4c1.6,1.5,2.8,3.4,3.7,5.4c0.9,2.3,1.4,4.7,1.3,7.1c0,2.4-0.4,4.9-1.3,7.1
			c-0.8,2.1-2.1,3.9-3.7,5.4c-1.6,1.5-3.5,2.7-5.6,3.4c-4.6,1.6-9.6,1.6-14.1,0c-2.1-0.8-4-1.9-5.6-3.4c-1.6-1.5-2.8-3.4-3.7-5.4
			C198.9,37,198.5,34.6,198.5,32.2z M206,32.2c0,1.4,0.2,2.9,0.7,4.2c0.5,1.2,1.1,2.4,2.1,3.3c0.9,0.9,2,1.7,3.2,2.2
			c2.7,1,5.7,1,8.4,0c1.2-0.5,2.3-1.2,3.2-2.2c0.9-1,1.6-2.1,2.1-3.3c0.9-2.7,0.9-5.7,0-8.4c-0.4-1.2-1.1-2.4-2.1-3.3
			c-0.9-0.9-2-1.7-3.2-2.2c-2.7-1.1-5.7-1.1-8.4,0c-1.2,0.5-2.3,1.2-3.2,2.2c-0.9,1-1.6,2.1-2.1,3.3C206.2,29.3,206,30.8,206,32.2z"
			/>
		<path id="XMLID_248_" class="st0" d="M240.2,15.8h9.8l13.9,22.7h0.1V15.8h7.2v32.7h-9.4l-14.3-23.3h-0.1v23.3h-7.2L240.2,15.8z"/>
		<path id="XMLID_245_" class="st0" d="M159.2,93.5h9.2c1.4,0,2.8,0.2,4.1,0.7c1,0.4,1.8,1,2.6,1.7c0.6,0.7,1.1,1.5,1.3,2.3
			c0.5,1.6,0.5,3.4,0,5c-0.2,0.9-0.7,1.7-1.3,2.3c-0.7,0.8-1.6,1.3-2.6,1.7c-1.3,0.5-2.7,0.7-4.1,0.7h-5.6v11.4h-3.5V93.5z
			 M162.8,104.8h4.6c0.7,0,1.4-0.1,2.1-0.2c0.6-0.1,1.2-0.3,1.8-0.6c0.5-0.3,1-0.7,1.3-1.3c0.6-1.4,0.6-2.9,0-4.3
			c-0.3-0.5-0.7-1-1.3-1.3c-0.6-0.3-1.2-0.5-1.8-0.6c-0.7-0.1-1.4-0.2-2.1-0.2h-4.6V104.8z"/>
		<path id="XMLID_244_" class="st0" d="M180,102h3.3v2.7h0.1c0.2-0.5,0.5-0.9,0.9-1.3c0.4-0.4,0.8-0.7,1.2-1c0.5-0.3,1-0.5,1.5-0.6
			c0.5-0.2,1.1-0.2,1.6-0.2c0.5,0,1,0.1,1.5,0.2l-0.1,3.5c-0.3-0.1-0.5-0.1-0.8-0.2c-0.3,0-0.5-0.1-0.8-0.1
			c-1.4-0.1-2.7,0.4-3.7,1.3c-1,1.2-1.4,2.7-1.3,4.2v8.7H180L180,102z"/>
		<path id="XMLID_241_" class="st0" d="M191.4,110.6c0-1.2,0.2-2.4,0.7-3.5c0.5-1.1,1.1-2.1,2-2.9c3.7-3.6,9.5-3.6,13.2,0
			c0.8,0.8,1.5,1.8,2,2.9c0.5,1.1,0.7,2.3,0.7,3.5c0,2.4-1,4.7-2.7,6.4c-3.7,3.5-9.5,3.5-13.2,0c-0.8-0.8-1.5-1.8-2-2.9
			C191.6,113,191.4,111.8,191.4,110.6z M194.9,110.6c0,0.8,0.1,1.6,0.4,2.4c0.5,1.4,1.6,2.6,2.9,3.1c1.5,0.6,3.2,0.6,4.8,0
			c0.7-0.3,1.3-0.7,1.8-1.2c0.5-0.5,0.9-1.2,1.1-1.9c0.5-1.6,0.5-3.3,0-4.8c-0.3-0.7-0.6-1.3-1.1-1.9c-0.5-0.5-1.1-1-1.8-1.2
			c-1.5-0.6-3.2-0.6-4.8,0c-0.7,0.3-1.3,0.7-1.8,1.2c-0.5,0.5-0.9,1.2-1.1,1.9C195,109,194.9,109.8,194.9,110.6z"/>
		<path id="XMLID_238_" class="st0" d="M217.5,102v19.7c0,0.4,0,1-0.1,1.7c-0.1,0.7-0.3,1.4-0.6,2.1c-0.4,0.7-0.9,1.3-1.6,1.7
			c-0.9,0.5-2,0.8-3.1,0.7c-0.4,0-0.7,0-1.1-0.1c-0.3-0.1-0.7-0.1-1-0.3l0.4-3.1c0.2,0.1,0.4,0.1,0.7,0.2c0.2,0.1,0.5,0.1,0.7,0.1
			c0.7,0.1,1.5-0.2,1.9-0.9c0.4-0.8,0.6-1.6,0.5-2.5v-19.6L217.5,102z M213.4,95.8c0-1.3,1.1-2.4,2.4-2.4c0,0,0,0,0,0
			c0.6,0,1.3,0.2,1.7,0.7c0.9,0.9,1,2.4,0,3.4c0,0,0,0,0,0c-1,0.9-2.5,0.9-3.4-0.1C213.7,97,213.4,96.4,213.4,95.8L213.4,95.8z"/>
		<path id="XMLID_235_" class="st0" d="M225.6,111.8c0,0.7,0.2,1.4,0.5,2.1c0.3,0.6,0.8,1.1,1.3,1.6c0.6,0.5,1.2,0.8,1.9,1
			c0.7,0.2,1.5,0.4,2.2,0.4c0.9,0,1.9-0.2,2.7-0.7c0.8-0.5,1.5-1.1,2.1-1.9l2.5,1.9c-1.8,2.4-4.7,3.7-7.7,3.5
			c-1.3,0-2.5-0.2-3.7-0.7c-1.1-0.4-2-1.1-2.8-1.9c-0.8-0.8-1.4-1.8-1.8-2.9c-0.4-1.1-0.6-2.4-0.6-3.6c0-1.2,0.2-2.4,0.7-3.6
			c0.4-1.1,1.1-2.1,1.9-2.9c0.8-0.8,1.8-1.5,2.9-1.9c1.1-0.5,2.4-0.7,3.6-0.7c1.4,0,2.7,0.2,3.9,0.8c1,0.5,1.9,1.2,2.6,2.1
			c0.7,0.9,1.2,1.9,1.5,2.9c0.3,1.1,0.5,2.2,0.5,3.3v1.2L225.6,111.8z M236,109.2c0-0.7-0.1-1.4-0.3-2.1c-0.2-0.6-0.5-1.1-0.9-1.6
			c-0.4-0.5-1-0.8-1.6-1c-0.7-0.3-1.4-0.4-2.2-0.4c-0.8,0-1.5,0.1-2.2,0.5c-1.2,0.6-2.2,1.6-2.8,2.8c-0.2,0.6-0.4,1.2-0.4,1.8
			L236,109.2z"/>
		<path id="XMLID_234_" class="st0" d="M256,106.6c-0.6-0.6-1.2-1.1-1.9-1.4c-1.5-0.7-3.3-0.7-4.8,0c-0.7,0.3-1.2,0.8-1.7,1.3
			c-0.5,0.6-0.8,1.3-1,2c-0.2,0.7-0.4,1.5-0.3,2.3c0,0.8,0.1,1.5,0.4,2.3c0.3,0.7,0.6,1.3,1.1,1.9c0.5,0.5,1.1,1,1.8,1.3
			c0.7,0.3,1.5,0.5,2.3,0.5c0.8,0,1.6-0.1,2.4-0.5c0.7-0.4,1.3-0.8,1.8-1.4l2.3,2.3c-0.8,0.9-1.8,1.6-3,2.1
			c-1.2,0.4-2.4,0.6-3.6,0.6c-1.3,0-2.5-0.2-3.7-0.7c-1.1-0.4-2.1-1-2.9-1.8c-0.8-0.8-1.5-1.8-1.9-2.8c-0.5-1.2-0.7-2.4-0.7-3.7
			c0-1.3,0.2-2.5,0.7-3.7c0.4-1.1,1-2.1,1.9-2.9c0.8-0.8,1.8-1.5,2.9-1.9c1.2-0.5,2.5-0.7,3.7-0.7c1.3,0,2.5,0.2,3.7,0.7
			c1.2,0.4,2.2,1.1,3.1,2.1L256,106.6z"/>
		<path id="XMLID_233_" class="st0" d="M273,104.8h-4.7v7.8c0,0.5,0,1,0,1.4c0,0.4,0.1,0.9,0.3,1.3c0.2,0.4,0.4,0.7,0.7,0.9
			c0.4,0.3,0.9,0.4,1.5,0.3c0.4,0,0.8,0,1.2-0.1c0.4-0.1,0.8-0.2,1.1-0.4v3c-0.5,0.3-1,0.4-1.5,0.5c-0.5,0.1-1,0.1-1.5,0.1
			c-1,0-2-0.1-3-0.5c-0.6-0.3-1.2-0.8-1.5-1.4c-0.3-0.6-0.5-1.2-0.6-1.9c-0.1-0.7-0.1-1.4-0.1-2.1v-9h-3.8V102h3.8v-4.9h3.3v4.8h4.7
			L273,104.8z"/>
		<path id="XMLID_232_" class="st1" d="M19.7,140.4h4.2l7.9,21.9h0.1l8.2-21.9h4l-10.6,26.9H30L19.7,140.4z"/>
		<path id="XMLID_231_" class="st1" d="M60.1,140.4h17.3v3.4H63.7v8h12.8v3.4H63.7v8.6h14.4v3.4h-18V140.4z"/>
		<path id="XMLID_228_" class="st1" d="M96.1,140.4h9.4c1.4,0,2.9,0.2,4.2,0.7c1,0.4,1.9,1,2.6,1.8c0.6,0.7,1.1,1.5,1.3,2.4
			c0.2,0.8,0.4,1.7,0.4,2.6c0,0.8-0.2,1.7-0.5,2.5c-0.3,0.8-0.8,1.5-1.3,2.2c-0.6,0.7-1.3,1.2-2.1,1.6c-0.9,0.5-1.8,0.7-2.7,0.8
			l7.6,12.3h-4.6l-6.8-11.8h-4.1v11.8h-3.6V140.4z M99.7,152.2h4.8c0.7,0,1.4-0.1,2.1-0.2c0.6-0.1,1.3-0.3,1.9-0.6
			c0.5-0.3,1-0.8,1.3-1.3c0.4-0.7,0.5-1.4,0.5-2.2c0-0.8-0.1-1.5-0.5-2.2c-0.3-0.5-0.8-1-1.3-1.3c-0.6-0.3-1.2-0.5-1.9-0.6
			c-0.7-0.1-1.4-0.2-2.1-0.2h-4.8L99.7,152.2z"/>
		<path id="XMLID_227_" class="st1" d="M132,140.4h3.7v26.9H132V140.4z"/>
		<path id="XMLID_226_" class="st1" d="M155.3,140.4h16.9v3.4H159v8.4h12.3v3.4H159v11.6h-3.6V140.4z"/>
		<path id="XMLID_225_" class="st1" d="M189.8,140.4h3.7v26.9h-3.7V140.4z"/>
		<path id="XMLID_224_" class="st1" d="M213.1,140.4h17.3v3.4h-13.7v8h12.8v3.4h-12.8v8.6h14.4v3.4h-18V140.4z"/>
		<path id="XMLID_221_" class="st1" d="M248.4,140.4h9.4c1.7,0,3.4,0.2,5,0.6c1.3,0.4,2.6,1,3.7,1.7c1,0.7,1.9,1.5,2.6,2.5
			c0.7,0.9,1.2,1.9,1.7,2.9c0.4,1,0.7,1.9,0.9,3c0.2,0.9,0.3,1.8,0.3,2.7c0,1.7-0.3,3.4-1,5c-0.6,1.6-1.6,3.1-2.8,4.3
			c-1.3,1.3-2.9,2.3-4.6,3c-2,0.8-4.2,1.2-6.4,1.1h-8.8L248.4,140.4z M252.1,163.8h4.6c1.5,0,3-0.2,4.4-0.6c1.3-0.4,2.5-1,3.6-1.9
			c1-0.9,1.9-1.9,2.5-3.1c0.6-1.4,0.9-2.9,0.9-4.4c0-1-0.2-2-0.4-3c-0.6-2.6-2.4-4.7-4.8-5.9c-1.7-0.8-3.5-1.2-5.3-1.1h-5.5V163.8z"
			/>
		<path id="XMLID_220_" class="st2" d="M3,186.6h2.7v2.2h0.1c0.4-0.8,1-1.4,1.8-1.8c0.9-0.5,1.9-0.7,2.9-0.7c0.7,0,1.3,0.1,1.9,0.3
			c0.6,0.2,1.2,0.5,1.6,1c0.5,0.5,0.9,1.1,1.1,1.7c0.3,0.8,0.4,1.6,0.4,2.4v9.1h-2.7v-8.3c0-0.6-0.1-1.1-0.3-1.7
			c-0.2-0.4-0.4-0.8-0.7-1.1c-0.3-0.3-0.6-0.5-1-0.6c-0.4-0.1-0.8-0.2-1.2-0.2c-0.5,0-1.1,0.1-1.5,0.3c-0.5,0.2-0.9,0.5-1.3,0.9
			c-0.4,0.4-0.7,0.9-0.8,1.5c-0.2,0.7-0.3,1.4-0.3,2.1v7.3H3V186.6z"/>
		<path id="XMLID_217_" class="st2" d="M20.4,193.7c0-1,0.2-2,0.6-2.9c0.4-0.9,0.9-1.7,1.6-2.4c2.2-2.1,5.4-2.7,8.3-1.6
			c1.8,0.7,3.2,2.2,4,3.9c0.4,0.9,0.6,1.9,0.6,2.9c0,2-0.8,3.9-2.2,5.3c-0.7,0.7-1.5,1.2-2.4,1.6c-1.9,0.8-4,0.8-5.9,0
			c-0.9-0.4-1.7-0.9-2.4-1.6c-0.7-0.7-1.2-1.5-1.6-2.3C20.6,195.7,20.4,194.7,20.4,193.7z M23.3,193.7c0,0.7,0.1,1.3,0.3,2
			c0.2,0.6,0.5,1.1,0.9,1.5c0.4,0.4,0.9,0.8,1.5,1c1.2,0.5,2.6,0.5,3.9,0c0.6-0.2,1-0.6,1.5-1c0.4-0.4,0.7-1,0.9-1.5
			c0.4-1.3,0.4-2.7,0-4c-0.2-0.6-0.5-1.1-0.9-1.5c-0.4-0.4-0.9-0.8-1.5-1c-1.2-0.5-2.6-0.5-3.9,0c-0.6,0.2-1,0.6-1.5,1
			c-0.4,0.4-0.7,1-0.9,1.5C23.4,192.3,23.3,193,23.3,193.7z"/>
		<path id="XMLID_216_" class="st2" d="M40.4,186.6h2.7v2.2h0.1c0.4-0.8,1-1.4,1.8-1.8c0.9-0.5,1.9-0.7,2.9-0.7
			c0.7,0,1.3,0.1,1.9,0.3c0.6,0.2,1.2,0.5,1.6,1c0.5,0.5,0.9,1,1.1,1.7c0.3,0.8,0.4,1.6,0.4,2.4v9.1h-2.7v-8.3
			c0-0.6-0.1-1.1-0.3-1.7c-0.2-0.4-0.4-0.8-0.7-1.1c-0.3-0.3-0.6-0.5-1-0.6c-0.4-0.1-0.8-0.2-1.2-0.2c-0.5,0-1.1,0.1-1.5,0.3
			c-0.5,0.2-0.9,0.5-1.3,0.9c-0.4,0.4-0.7,0.9-0.8,1.5c-0.2,0.7-0.3,1.4-0.3,2.1v7.3h-2.6V186.6z"/>
		<path id="XMLID_213_" class="st2" d="M73,200.6c0,1-0.2,2-0.6,2.9c-0.3,0.9-0.9,1.6-1.6,2.3c-0.7,0.7-1.5,1.2-2.4,1.5
			c-1,0.4-2.1,0.5-3.1,0.5c-1.3,0-2.5-0.2-3.7-0.6c-1.2-0.4-2.3-1.1-3.2-2l1.8-2.3c0.6,0.7,1.4,1.3,2.3,1.7c0.9,0.4,1.8,0.6,2.8,0.6
			c0.8,0,1.7-0.1,2.5-0.4c0.6-0.2,1.1-0.6,1.6-1.1c0.4-0.5,0.7-1,0.8-1.6c0.2-0.6,0.2-1.2,0.2-1.8v-2.1h-0.1
			c-0.5,0.8-1.2,1.5-2.1,1.9c-0.9,0.4-1.8,0.6-2.8,0.6c-1,0-2-0.2-2.9-0.6c-0.9-0.3-1.6-0.9-2.3-1.5c-0.6-0.7-1.1-1.4-1.5-2.3
			c-0.4-0.9-0.5-1.9-0.5-2.9c0-1,0.2-2,0.5-2.9c0.3-0.9,0.8-1.7,1.4-2.4c0.6-0.7,1.4-1.2,2.3-1.6c0.9-0.4,1.9-0.6,3-0.6
			c1,0,1.9,0.2,2.8,0.6c0.9,0.4,1.6,1,2.1,1.8h0.1v-2.1H73L73,200.6z M65.7,188.8c-0.7,0-1.3,0.1-1.9,0.4c-0.6,0.2-1,0.6-1.5,1
			c-0.4,0.4-0.7,1-0.9,1.5c-0.2,0.6-0.3,1.3-0.3,2c-0.1,1.3,0.4,2.5,1.3,3.4c1.9,1.7,4.8,1.7,6.8,0c0.9-0.9,1.3-2.2,1.3-3.4
			c0-0.7-0.1-1.3-0.3-2c-0.2-0.6-0.5-1.1-0.9-1.6c-0.4-0.4-0.9-0.8-1.5-1C67,188.8,66.3,188.7,65.7,188.8z"/>
		<path id="XMLID_212_" class="st2" d="M79.1,186.6h2.5v2.2h0.1c0.1-0.3,0.3-0.5,0.5-0.7c0.3-0.3,0.6-0.6,0.9-0.9
			c0.4-0.3,0.9-0.5,1.4-0.7c0.6-0.2,1.1-0.3,1.7-0.3c0.9,0,1.9,0.2,2.7,0.7c0.8,0.5,1.4,1.2,1.8,2c0.4-0.8,1.1-1.5,1.9-2
			c0.8-0.4,1.6-0.7,2.5-0.7c0.9,0,1.8,0.1,2.7,0.5c0.7,0.3,1.2,0.8,1.6,1.4c0.4,0.6,0.7,1.3,0.8,2c0.1,0.8,0.2,1.5,0.2,2.3v8.2h-2.7
			v-7.8c0-0.5,0-1-0.1-1.5c-0.1-0.5-0.2-0.9-0.4-1.3c-0.2-0.4-0.5-0.7-0.9-0.9c-0.5-0.3-1-0.4-1.6-0.3c-1.1-0.1-2.1,0.3-2.8,1.2
			c-0.6,0.9-0.9,2-0.8,3.1v7.7h-2.7v-7.4c0-0.6,0-1.2-0.1-1.8c-0.1-0.5-0.2-1-0.4-1.4c-0.2-0.4-0.5-0.7-0.9-0.9
			c-0.5-0.3-1-0.4-1.6-0.3c-0.5,0-0.9,0.1-1.4,0.3c-0.5,0.2-0.9,0.5-1.2,0.9c-0.4,0.4-0.6,0.9-0.8,1.4c-0.2,0.7-0.3,1.4-0.3,2.1v7.3
			h-2.7V186.6z"/>
		<path id="XMLID_209_" class="st2" d="M105.3,193.7c0-1,0.2-2,0.6-2.9c0.4-0.9,0.9-1.7,1.6-2.4c2.9-2.9,7.7-2.9,10.6,0
			c0.7,0.7,1.2,1.5,1.6,2.4c0.4,0.9,0.6,1.9,0.6,2.9c0,2-0.8,3.9-2.2,5.3c-0.7,0.7-1.5,1.2-2.4,1.6c-1.9,0.8-4,0.8-5.9,0
			c-0.9-0.4-1.7-0.9-2.4-1.6c-0.7-0.7-1.2-1.5-1.6-2.3C105.5,195.7,105.3,194.7,105.3,193.7z M108.2,193.7c0,0.7,0.1,1.3,0.3,2
			c0.2,0.6,0.5,1.1,0.9,1.5c0.4,0.4,0.9,0.8,1.5,1c0.6,0.3,1.3,0.4,1.9,0.4c0.7,0,1.3-0.1,1.9-0.4c0.6-0.2,1.1-0.6,1.5-1
			c0.4-0.4,0.7-1,0.9-1.5c0.4-1.3,0.4-2.7,0-4c-0.2-0.6-0.5-1.1-0.9-1.6c-0.4-0.4-0.9-0.8-1.5-1c-0.6-0.3-1.3-0.4-1.9-0.4
			c-0.7,0-1.3,0.1-1.9,0.4c-0.6,0.2-1,0.6-1.5,1c-0.4,0.5-0.7,1-0.9,1.5C108.3,192.3,108.2,193,108.2,193.7z"/>
		<path id="XMLID_206_" class="st2" d="M125.8,186.6h2.7v2.1h0.1c0.5-0.8,1.3-1.4,2.1-1.8c0.9-0.4,1.8-0.6,2.8-0.6c1,0,2,0.2,3,0.6
			c0.9,0.4,1.6,0.9,2.3,1.6c0.6,0.7,1.1,1.5,1.4,2.4c0.7,1.9,0.7,3.9,0,5.8c-0.3,0.9-0.8,1.7-1.4,2.4c-0.6,0.7-1.4,1.2-2.3,1.6
			c-0.9,0.4-1.9,0.6-3,0.6c-1,0-2-0.2-2.9-0.6c-0.8-0.4-1.5-1-2.1-1.7h-0.1v10.4h-2.7L125.8,186.6z M133.1,188.8
			c-0.7,0-1.3,0.1-1.9,0.4c-0.6,0.2-1,0.6-1.5,1c-0.4,0.5-0.7,1-0.9,1.5c-0.4,1.3-0.4,2.7,0,4c0.2,0.6,0.5,1.1,0.9,1.5
			c0.4,0.4,0.9,0.8,1.5,1c1.2,0.5,2.6,0.5,3.9,0c0.6-0.2,1.1-0.6,1.5-1c0.4-0.4,0.7-1,0.9-1.5c0.4-1.3,0.4-2.7,0-4
			c-0.2-0.6-0.5-1.1-0.9-1.5c-0.4-0.4-0.9-0.8-1.5-1C134.4,188.9,133.8,188.7,133.1,188.8L133.1,188.8z"/>
		<path id="XMLID_205_" class="st2" d="M145.5,186.6h2.7v2.2h0.1c0.2-0.4,0.4-0.7,0.7-1c0.3-0.3,0.7-0.6,1-0.8
			c0.4-0.2,0.8-0.4,1.2-0.5c0.4-0.1,0.9-0.2,1.3-0.2c0.4,0,0.8,0.1,1.2,0.2l-0.1,2.9l-0.7-0.1c-0.2-0.1-0.5-0.1-0.7-0.1
			c-1.1-0.1-2.2,0.3-3,1.1c-0.8,1-1.1,2.2-1,3.4v7.1h-2.7L145.5,186.6z"/>
		<path id="XMLID_202_" class="st2" d="M156.1,193.7c0-1,0.2-2,0.6-2.9c1.7-3.8,6-5.5,9.9-3.9c0.9,0.4,1.7,0.9,2.4,1.6
			c0.7,0.7,1.2,1.5,1.6,2.4c0.4,0.9,0.6,1.9,0.6,2.9c0,1-0.2,2-0.6,2.9c-0.4,0.9-0.9,1.7-1.6,2.3c-2.2,2.1-5.4,2.7-8.3,1.6
			c-0.9-0.4-1.7-0.9-2.4-1.6C156.9,197.5,156.1,195.6,156.1,193.7L156.1,193.7z M159,193.7c0,0.7,0.1,1.3,0.3,2
			c0.2,0.6,0.5,1.1,0.9,1.5c0.4,0.4,0.9,0.8,1.5,1c1.2,0.5,2.6,0.5,3.9,0c0.6-0.2,1-0.6,1.5-1c0.4-0.4,0.7-1,0.9-1.5
			c0.4-1.3,0.4-2.7,0-4c-0.2-0.6-0.5-1.1-0.9-1.5c-0.4-0.4-0.9-0.8-1.5-1c-1.2-0.5-2.6-0.5-3.9,0c-0.6,0.2-1,0.6-1.5,1
			c-0.4,0.4-0.7,1-0.9,1.5C159.1,192.3,158.9,193,159,193.7z"/>
		<path id="XMLID_199_" class="st2" d="M178.9,186.6v16.1c0,0.4,0,0.8-0.1,1.4c-0.1,0.6-0.2,1.2-0.5,1.7c-0.3,0.6-0.7,1.1-1.3,1.4
			c-0.8,0.4-1.6,0.6-2.5,0.6c-0.3,0-0.6,0-0.9-0.1c-0.3,0-0.6-0.1-0.9-0.2l0.3-2.5c0.2,0.1,0.4,0.1,0.5,0.2c0.2,0.1,0.4,0.1,0.6,0.1
			c0.6,0.1,1.2-0.2,1.5-0.7c0.3-0.6,0.5-1.3,0.4-2.1v-16H178.9z M175.6,181.6c0-1.1,0.9-2,2-2c1.1,0,2,0.9,2,2c0,1.1-0.9,2-2,2
			c-0.5,0-1.1-0.2-1.5-0.6C175.8,182.6,175.6,182.1,175.6,181.6L175.6,181.6z"/>
		<path id="XMLID_196_" class="st2" d="M187.1,194.7c0,0.6,0.1,1.2,0.4,1.7c0.3,0.5,0.6,0.9,1,1.3c0.5,0.4,1,0.6,1.5,0.8
			c0.6,0.2,1.2,0.3,1.8,0.3c0.8,0,1.5-0.2,2.2-0.6c0.6-0.4,1.2-0.9,1.7-1.5l2.1,1.5c-1.5,1.9-3.8,3-6.2,2.9c-1,0-2.1-0.2-3-0.6
			c-0.9-0.4-1.6-0.9-2.3-1.6c-0.6-0.7-1.1-1.5-1.4-2.4c-0.3-0.9-0.5-1.9-0.5-2.9c0-1,0.2-2,0.5-2.9c0.3-0.9,0.9-1.7,1.5-2.3
			c0.7-0.7,1.4-1.2,2.3-1.6c0.9-0.4,1.9-0.6,2.9-0.6c1.1,0,2.2,0.2,3.2,0.7c0.8,0.4,1.5,1,2.1,1.7c0.6,0.7,1,1.5,1.2,2.4
			c0.2,0.9,0.4,1.8,0.4,2.7v1L187.1,194.7z M195.6,192.5c0-0.6-0.1-1.1-0.3-1.6c-0.2-0.5-0.4-0.9-0.8-1.3c-0.4-0.4-0.8-0.7-1.3-0.9
			c-0.6-0.2-1.2-0.3-1.8-0.3c-1.2,0-2.3,0.5-3.2,1.3c-0.4,0.4-0.7,0.8-0.9,1.3c-0.2,0.5-0.3,0.9-0.3,1.4H195.6z"/>
		<path id="XMLID_195_" class="st2" d="M212.7,190.4c-0.4-0.5-1-0.9-1.6-1.2c-0.6-0.3-1.3-0.4-1.9-0.4c-0.7,0-1.3,0.1-1.9,0.4
			c-0.5,0.3-1,0.6-1.4,1.1c-0.4,0.5-0.7,1-0.8,1.6c-0.2,0.6-0.3,1.2-0.3,1.9c0,0.6,0.1,1.3,0.3,1.9c0.2,0.6,0.5,1.1,0.9,1.5
			c0.4,0.4,0.9,0.8,1.4,1c0.6,0.3,1.2,0.4,1.9,0.4c0.7,0,1.3-0.1,1.9-0.4c0.6-0.3,1.1-0.7,1.5-1.2l1.9,1.9c-0.7,0.8-1.5,1.3-2.4,1.7
			c-0.9,0.3-1.9,0.5-2.9,0.5c-1,0-2-0.2-3-0.5c-0.9-0.3-1.7-0.9-2.3-1.5c-0.7-0.7-1.2-1.4-1.5-2.3c-0.4-1-0.6-2-0.5-3
			c0-1,0.2-2,0.5-3c0.3-0.9,0.8-1.7,1.5-2.3c0.7-0.7,1.4-1.2,2.3-1.5c1-0.4,2-0.6,3-0.5c1,0,2,0.2,3,0.5c0.9,0.4,1.8,0.9,2.5,1.7
			L212.7,190.4z"/>
		<path id="XMLID_194_" class="st2" d="M226.1,188.9h-3.8v6.4c0,0.4,0,0.8,0,1.2c0,0.4,0.1,0.7,0.2,1c0.1,0.3,0.3,0.6,0.6,0.7
			c0.4,0.2,0.8,0.3,1.2,0.3c0.3,0,0.7,0,1-0.1c0.3-0.1,0.6-0.2,0.9-0.3v2.4c-0.4,0.2-0.8,0.3-1.2,0.4c-0.4,0.1-0.8,0.1-1.2,0.1
			c-0.8,0-1.6-0.1-2.4-0.4c-0.5-0.2-1-0.6-1.3-1.1c-0.3-0.5-0.4-1-0.5-1.5c-0.1-0.6-0.1-1.1-0.1-1.7v-7.3h-3.1v-2.3h3.1v-4h2.7v4
			h3.8V188.9z"/>
		<path id="XMLID_193_" class="st2" d="M233.1,200.9c-0.5,0-1-0.2-1.4-0.6c-0.8-0.8-0.8-2,0-2.8c0.8-0.8,2-0.8,2.8,0
			c0.8,0.8,0.8,2,0,2.8c0,0,0,0,0,0C234.1,200.7,233.6,200.9,233.1,200.9z"/>
		<path id="XMLID_190_" class="st2" d="M240,193.7c0-1,0.2-2,0.6-2.9c1.7-3.8,6-5.5,9.9-3.9c0.9,0.4,1.7,0.9,2.4,1.6
			c0.7,0.7,1.2,1.5,1.6,2.4c0.4,0.9,0.6,1.9,0.6,2.9c0,1-0.2,2-0.6,2.9c-0.4,0.9-0.9,1.7-1.6,2.3c-2.2,2.1-5.4,2.7-8.3,1.6
			c-0.9-0.4-1.7-0.9-2.4-1.6C240.7,197.5,240,195.6,240,193.7z M242.8,193.7c0,0.7,0.1,1.3,0.3,2c0.2,0.6,0.5,1.1,0.9,1.5
			c0.4,0.4,0.9,0.8,1.5,1c1.2,0.5,2.6,0.5,3.9,0c0.6-0.2,1-0.6,1.5-1c0.4-0.4,0.7-1,0.9-1.5c0.4-1.3,0.4-2.7,0-4
			c-0.2-0.6-0.5-1.1-0.9-1.5c-0.4-0.4-0.9-0.8-1.5-1c-1.2-0.5-2.6-0.5-3.9,0c-0.6,0.2-1,0.6-1.5,1c-0.4,0.4-0.7,1-0.9,1.5
			C242.9,192.3,242.8,193,242.8,193.7z"/>
		<path id="XMLID_189_" class="st2" d="M259.9,186.6h2.7v2.2h0.1c0.2-0.4,0.4-0.7,0.7-1c0.3-0.3,0.7-0.6,1-0.8
			c0.4-0.2,0.8-0.4,1.2-0.5c0.4-0.1,0.9-0.2,1.3-0.2c0.4,0,0.8,0.1,1.2,0.2l-0.1,2.9l-0.7-0.1c-0.2,0-0.4-0.1-0.7-0.1
			c-1.1-0.1-2.2,0.3-3,1.1c-0.8,1-1.1,2.2-1,3.4v7.1h-2.7V186.6z"/>
		<path id="XMLID_186_" class="st2" d="M285.9,200.6c0,1-0.2,2-0.5,2.9c-0.4,0.9-0.9,1.6-1.6,2.3c-0.7,0.7-1.5,1.2-2.4,1.5
			c-1,0.4-2.1,0.5-3.2,0.5c-1.3,0-2.5-0.2-3.7-0.6c-1.2-0.4-2.3-1.1-3.2-2l1.8-2.3c0.6,0.7,1.4,1.3,2.2,1.7c0.9,0.4,1.8,0.6,2.8,0.6
			c0.8,0,1.7-0.1,2.5-0.4c0.6-0.2,1.1-0.6,1.6-1.1c0.4-0.5,0.7-1,0.8-1.6c0.2-0.6,0.2-1.2,0.2-1.8v-2.1h-0.1
			c-0.5,0.8-1.2,1.5-2.1,1.9c-0.9,0.4-1.8,0.6-2.8,0.6c-1,0-2-0.2-2.9-0.6c-0.9-0.3-1.6-0.9-2.3-1.5c-0.6-0.7-1.1-1.4-1.5-2.3
			c-0.4-0.9-0.5-1.9-0.5-2.9c0-1,0.2-2,0.5-2.9c0.3-0.9,0.8-1.7,1.4-2.4c0.6-0.7,1.4-1.2,2.3-1.6c0.9-0.4,1.9-0.6,3-0.6
			c1,0,1.9,0.2,2.8,0.6c0.9,0.4,1.6,1,2.1,1.8h0.1v-2.1h2.7L285.9,200.6z M278.6,188.8c-0.7,0-1.3,0.1-1.9,0.4c-0.6,0.2-1,0.6-1.5,1
			c-0.4,0.4-0.7,1-0.9,1.5c-0.2,0.6-0.3,1.3-0.3,2c-0.1,1.3,0.4,2.5,1.3,3.4c1.9,1.7,4.8,1.7,6.8,0c0.9-0.9,1.3-2.2,1.3-3.4
			c0-0.7-0.1-1.3-0.3-2c-0.2-0.6-0.5-1.1-0.9-1.5c-0.4-0.4-0.9-0.8-1.5-1C279.9,188.9,279.2,188.7,278.6,188.8L278.6,188.8z"/>
		<path id="XMLID_185_" class="st0" d="M189.1,85.9c-2.1,1.1-4.3,1.9-6.6,2.4c-2.3,0.5-4.7,0.7-7.1,0.7c-2.4,0-4.8-0.4-7.1-1.2
			c-2.1-0.8-4-1.9-5.6-3.4c-1.6-1.5-2.8-3.4-3.7-5.4c-1.8-4.6-1.8-9.6,0-14.2c0.8-2,2.1-3.9,3.7-5.4c1.6-1.5,3.5-2.7,5.6-3.4
			c2.3-0.8,4.6-1.2,7-1.2c2.4,0,4.8,0.3,7.2,0.9c2.2,0.6,4.2,1.7,5.8,3.3l-5.1,5.5c-0.9-1-2.1-1.8-3.3-2.3c-1.5-0.6-3-0.8-4.6-0.8
			c-1.4,0-2.8,0.2-4.2,0.8c-1.2,0.5-2.3,1.2-3.2,2.2c-0.9,1-1.6,2.1-2.1,3.3c-0.5,1.3-0.7,2.8-0.7,4.2c0,1.4,0.2,2.9,0.7,4.2
			c0.4,1.2,1.1,2.4,2.1,3.3c0.9,1,2,1.7,3.2,2.2c1.3,0.5,2.7,0.8,4.2,0.8c1.4,0,2.8-0.2,4.1-0.5c0.9-0.3,1.8-0.6,2.7-1.1v-5.3h-5.9
			v-6.6h12.8V85.9z"/>
		<path id="XMLID_184_" class="st0" d="M197.5,55.5h10.9l7.5,21.3h0.1l7.6-21.3h10.9v32.7h-7.2V63.1h-0.1l-8.6,25.1H213l-8.2-25.1
			h-0.1v25.1h-7.2L197.5,55.5z"/>
		<path id="XMLID_181_" class="st0" d="M239.9,71.8c0-2.4,0.4-4.9,1.3-7.1c0.8-2,2.1-3.9,3.7-5.4c1.6-1.5,3.5-2.7,5.6-3.4
			c4.6-1.6,9.6-1.6,14.1,0c2.1,0.7,4,1.9,5.6,3.4c1.6,1.5,2.8,3.4,3.7,5.4c1.8,4.6,1.8,9.6,0,14.2c-0.8,2-2.1,3.9-3.7,5.4
			c-1.6,1.5-3.5,2.7-5.6,3.4c-4.6,1.6-9.6,1.6-14.1,0c-2.1-0.8-4-1.9-5.6-3.4c-1.6-1.5-2.8-3.4-3.7-5.4
			C240.3,76.7,239.9,74.3,239.9,71.8z M247.4,71.8c0,1.4,0.2,2.9,0.7,4.2c0.5,1.2,1.1,2.4,2.1,3.3c0.9,0.9,2,1.7,3.2,2.2
			c2.7,1.1,5.7,1.1,8.4,0c1.2-0.5,2.3-1.2,3.2-2.2c0.9-1,1.6-2.1,2.1-3.3c0.5-1.4,0.7-2.8,0.7-4.2c0-1.4-0.2-2.9-0.7-4.2
			c-0.4-1.2-1.1-2.4-2.1-3.3c-0.9-0.9-2-1.7-3.2-2.2c-2.7-1-5.7-1-8.4,0c-1.2,0.5-2.3,1.2-3.2,2.2c-0.9,1-1.6,2.1-2.1,3.3
			C247.6,69,247.3,70.4,247.4,71.8L247.4,71.8z"/>
		<rect id="XMLID_180_" x="0.2" y="0.2" class="st0" width="288.1" height="211"/>
		<path id="XMLID_177_" class="st3" d="M288.6,211.5H0V0h288.6V211.5z M0.5,211h287.6V0.5H0.5V211z"/>
		<rect id="XMLID_176_" x="2.9" y="3.8" class="st4" width="141.2" height="126.5"/>
		<path id="XMLID_175_" class="st5" d="M98,29.9c-1.2-6.6-16.6-7.2-27.4,17.9c-5.7-12.8-14.3-26-26.3-33.1c-6.8-4.1-22,0.7-6.2,36.6
			c0,0-7.3,12.6,1,20.6c12.2,11.7,23.3,6.9,37.1,8.6c-2.6,4.1,3.4,10.1,4,3.4c0-1.4-0.1-2.8-0.4-4.1C83.4,75.3,101.8,50.2,98,29.9z"
			/>
		<rect id="XMLID_174_" x="144.1" y="3.8" class="st6" width="141.7" height="126.5"/>
		<path id="XMLID_173_" class="st7" d="M82.9,130.3c7.5-44.3,29.9-84.7,57.3-120.2c-13.8,6.4-31.4,25.3-46.8,46.9
			c-3.6,8.1-8.1,15.7-13.5,22.8c0.3,1.3,0.4,2.7,0.4,4.1c-0.4,4.8-3.5,3.2-4.4,0.4c-5.2,8.9-9.6,18.1-13.4,27.7
			c-7.6-19.9-25.5-36.2-48.8-45.1c18.8,22.8,30.4,41.6,35.3,63.4H2.9v44.8h282.9v-44.8H82.9z"/>
		<path id="XMLID_172_" class="st8" d="M91.7,39.5c-0.6-6.7-12.1-6.3-19,12.3l-0.2,0.3c3.2,7.7,5.5,15.6,7,23.8
			C82,71.9,92.9,53.8,91.7,39.5z"/>
		<path id="XMLID_171_" class="st8" d="M76.4,78.4c2.9,1.3-7.4-36.3-27.5-48.5c-5.1-3.1-13.8-0.4-3,24c0,0-8.1,13.1,4.4,18.9
			C58,76.5,68.2,74.9,76.4,78.4z"/>
		<path id="XMLID_170_" class="st0" d="M161.1,15.9h9.8l13.9,22.7h0.1V15.9h7.2v32.7h-9.4l-14.2-23.3h-0.1v23.3h-7.2L161.1,15.9z"/>
		<path id="XMLID_167_" class="st0" d="M216.1,15c10.2,0,17.6,6.7,17.6,17.2s-7.4,17.2-17.6,17.2s-17.6-6.7-17.6-17.2
			S205.9,15,216.1,15z M216.1,42.7c6.2,0,10.2-4.4,10.2-10.5s-4-10.5-10.2-10.5S206,26.1,206,32.2S210,42.7,216.1,42.7L216.1,42.7z"
			/>
		<path id="XMLID_166_" class="st0" d="M240.2,15.9h9.8l13.9,22.7h0.1V15.9h7.2v32.7h-9.4l-14.3-23.3h-0.1v23.3h-7.2L240.2,15.9z"/>
		<path id="XMLID_163_" class="st0" d="M159.2,93.5h9.2c6.7,0,8.4,4,8.4,7.2s-1.7,7.2-8.4,7.2h-5.6v11.4h-3.5V93.5z M162.8,104.8
			h4.6c2.8,0,5.6-0.7,5.6-4.1s-2.8-4.1-5.6-4.1h-4.6V104.8z"/>
		<path id="XMLID_162_" class="st0" d="M180,102h3.3v2.7h0.1c1-1.9,3-3.1,5.2-3.1c0.5,0,1,0.1,1.5,0.2l-0.1,3.5
			c-0.5-0.2-1.1-0.2-1.6-0.3c-3.2,0-5,1.7-5,5.5v8.7H180V102z"/>
		<path id="XMLID_159_" class="st0" d="M200.6,101.5c5,0.1,9,4.2,8.9,9.2c-0.1,5-4.2,9-9.2,8.9c-4.9-0.1-8.9-4.1-8.9-9.1
			C191.4,105.6,195.5,101.5,200.6,101.5C200.6,101.5,200.6,101.5,200.6,101.5z M200.6,116.6c3.5,0,5.7-2.5,5.7-6s-2.2-6-5.7-6
			c-3.5,0-5.7,2.5-5.7,6S197.1,116.6,200.6,116.6z"/>
		<path id="XMLID_156_" class="st0" d="M217.5,102v19.7c0,1.8,0,6.3-5.3,6.3c-0.7,0-1.4-0.1-2.1-0.3l0.4-3.1
			c0.4,0.2,0.9,0.3,1.4,0.3c1.8,0,2.4-1.2,2.4-3.4v-19.6L217.5,102z M215.8,93.4c1.3,0,2.4,1.1,2.4,2.4s-1.1,2.4-2.4,2.4
			c-1.3,0-2.4-1.1-2.4-2.4C213.4,94.4,214.5,93.4,215.8,93.4z"/>
		<path id="XMLID_153_" class="st0" d="M225.6,111.8c0,3.1,2.8,5,5.9,5c1.9-0.1,3.7-1,4.8-2.6l2.5,1.9c-1.8,2.4-4.7,3.7-7.7,3.5
			c-5.5,0-9-3.9-9-9.1c-0.2-4.9,3.7-8.9,8.5-9.1c0.2,0,0.3,0,0.5,0c6.2,0,8.5,4.7,8.5,9.1v1.2H225.6z M236.1,109.2
			c-0.1-2.9-1.7-5-5-5c-2.9,0-5.2,2.2-5.4,5H236.1z"/>
		<path id="XMLID_152_" class="st0" d="M256,106.6c-1.1-1.3-2.7-2-4.3-1.9c-3.6,0-5.4,2.9-5.4,6.2c-0.2,3.1,2.2,5.7,5.2,5.9
			c0.1,0,0.3,0,0.4,0c1.6,0.1,3.2-0.7,4.2-1.9l2.4,2.3c-1.7,1.8-4.1,2.8-6.6,2.7c-5.4,0-9.1-3.7-9.1-9c-0.2-4.8,3.5-8.9,8.3-9.1
			c0.3,0,0.6,0,0.8,0c2.5-0.1,4.9,0.9,6.7,2.7L256,106.6z"/>
		<path id="XMLID_151_" class="st0" d="M273,104.8h-4.7v7.8c0,1.9,0,4,2.5,4c0.8,0,1.6-0.1,2.4-0.5v3c-0.9,0.4-2,0.6-3,0.6
			c-5.1,0-5.2-3.1-5.2-5.9v-9h-3.8V102h3.8v-4.9h3.3v4.9h4.7L273,104.8z"/>
		<path id="XMLID_150_" class="st0" d="M19.7,140.4h4.2l7.9,21.9h0.1l8.2-21.9h4l-10.6,26.9H30L19.7,140.4z"/>
		<path id="XMLID_147_" class="st0" d="M34,168h-4.4l-10.9-28.4h5.8l7.4,20.5l7.7-20.5h5.6L34,168z M30.5,166.5H33l10-25.4h-2.4
			L32.4,163h-1l-0.3-0.5l-7.7-21.4h-2.6L30.5,166.5z"/>
		<path id="XMLID_146_" class="st0" d="M60.1,140.4h17.3v3.4H63.7v8h12.8v3.4H63.7v8.6h14.4v3.4h-18V140.4z"/>
		<path id="XMLID_143_" class="st0" d="M78.8,168H59.4v-28.4h18.8v4.9H64.5v6.5h12.8v4.9H64.5v7.1h14.4L78.8,168z M60.8,166.5h16.5
			v-1.9H62.9v-10.1h12.8v-1.9H62.9V143h13.7v-1.9H60.8V166.5z"/>
		<path id="XMLID_140_" class="st0" d="M96.1,140.4h9.4c6.9,0,8.6,4.1,8.6,7.5c0,3.7-2.9,6.8-6.6,7.1l7.6,12.3h-4.6l-6.8-11.8h-4.1
			v11.8h-3.6V140.4z M99.7,152.1h4.8c2.9,0,5.8-0.7,5.8-4.3c0-3.6-2.9-4.3-5.8-4.3h-4.8L99.7,152.1z"/>
		<path id="XMLID_135_" class="st0" d="M116.5,168h-6.4l-6.8-11.8h-2.9V168h-5.1v-28.4h10.2c8.7,0,9.4,6.3,9.4,8.3
			c0,3.7-2.6,6.8-6.2,7.6L116.5,168z M111,166.5h2.8l-7.5-12.1l1.2-0.1c3.3-0.3,5.9-3,5.9-6.4c0-2.5-1-6.8-7.9-6.8h-8.7v25.4h2.1
			v-11.9h5.2L111,166.5z M104.5,153h-5.5v-10.1h5.5c4.3,0,6.5,1.7,6.5,5.1S108.8,152.9,104.5,153L104.5,153z M100.4,151.5h4
			c3.5,0,5-1,5-3.6c0-2.6-1.5-3.6-5-3.6h-4V151.5z"/>
		<path id="XMLID_134_" class="st0" d="M132,140.4h3.7v26.9H132V140.4z"/>
		<path id="XMLID_131_" class="st0" d="M136.4,168h-5.1v-28.4h5.1V168z M132.8,166.5h2.2v-25.4h-2.2V166.5z"/>
		<path id="XMLID_130_" class="st0" d="M155.3,140.4h16.9v3.4H159v8.4h12.3v3.4H159v11.7h-3.6V140.4z"/>
		<path id="XMLID_127_" class="st0" d="M159.7,168h-5.1v-28.4H173v4.9h-13.3v6.9H172v4.9h-12.3V168z M156.1,166.5h2.2v-11.6h12.3
			v-1.9h-12.3V143h13.2v-1.9h-15.4L156.1,166.5z"/>
		<path id="XMLID_126_" class="st0" d="M189.8,140.4h3.7v26.9h-3.7V140.4z"/>
		<path id="XMLID_123_" class="st0" d="M194.3,168h-5.1v-28.4h5.1V168z M190.6,166.5h2.2v-25.4h-2.2V166.5z"/>
		<path id="XMLID_122_" class="st0" d="M213.1,140.4h17.3v3.4h-13.7v8h12.8v3.4h-12.8v8.6h14.4v3.4h-18V140.4z"/>
		<path id="XMLID_119_" class="st0" d="M231.9,168h-19.5v-28.4h18.8v4.9h-13.7v6.5h12.8v4.9h-12.8v7.1h14.4L231.9,168z M213.8,166.5
			h16.5v-1.9H216v-10.1h12.8v-1.9H216V143h13.7v-1.9h-15.9V166.5z"/>
		<path id="XMLID_116_" class="st0" d="M248.4,140.4h9.4c11.4,0,14.1,8.5,14.1,13.4c0,6.9-5.1,13.4-14.7,13.4h-8.8V140.4z
			 M252.1,163.8h4.6c6.2,0,11.4-3.4,11.4-10c0-3.4-1.8-10-10.5-10h-5.5V163.8z"/>
		<path id="XMLID_111_" class="st0" d="M257.2,168h-9.5v-28.4h10.1c11,0,14.9,7.6,14.9,14.2C272.7,160.8,267.3,168,257.2,168z
			 M249.1,166.5h8c9.6,0,14-6.6,14-12.7c0-5.9-3.5-12.7-13.3-12.7h-8.6L249.1,166.5z M256.6,164.6h-5.3v-21.5h6.2
			c8.3,0,11.3,5.8,11.3,10.8C268.8,161.2,262.7,164.6,256.6,164.6L256.6,164.6z M252.8,163.1h3.8c4.9,0,10.6-2.4,10.6-9.2
			c0-1.5-0.5-9.2-9.8-9.2h-4.7V163.1z"/>
		<path id="XMLID_110_" class="st7" d="M3,186.6h2.7v2.2h0.1c0.9-1.7,2.7-2.7,4.6-2.5c2.7,0,5.1,1.6,5.1,5.4v9.1h-2.7v-8.3
			c0-2.6-1.5-3.6-3.2-3.6c-2.2,0-3.9,1.4-3.9,4.7v7.3H3V186.6z"/>
		<path id="XMLID_107_" class="st7" d="M15.7,200.8h-2.9v-8.5c0-3.2-2.2-3.5-3.1-3.5c-2.4,0-3.8,1.7-3.8,4.6v7.4H2.9v-14.4h2.9v1.9
			c1-1.5,2.8-2.3,4.6-2.3c2.5,0,5.3,1.4,5.3,5.5V200.8z M13,200.6h2.4v-9c0-2.5-1.3-5.3-5-5.3c-1.9-0.1-3.6,0.8-4.5,2.5v0.1H5.6
			v-2.2H3.2v13.8h2.4v-7.2c0-4.4,2.8-4.8,4.1-4.8c2.1,0,3.3,1.4,3.3,3.8V200.6z"/>
		<path id="XMLID_104_" class="st7" d="M27.9,186.2c4.1,0,7.4,3.4,7.3,7.5c0,4.1-3.4,7.4-7.5,7.3c-4.1,0-7.3-3.4-7.3-7.4
			C20.4,189.6,23.8,186.2,27.9,186.2C27.9,186.2,27.9,186.2,27.9,186.2z M27.9,198.6c2.9,0,4.6-2.1,4.6-4.9s-1.8-4.9-4.6-4.9
			s-4.6,2.1-4.6,4.9S25.1,198.6,27.9,198.6L27.9,198.6z"/>
		<path id="XMLID_99_" class="st7" d="M27.9,201.2c-4.2,0-7.5-3.5-7.5-7.6c0-4.2,3.5-7.5,7.6-7.5c4.1,0,7.5,3.4,7.5,7.5
			c0,4.1-3.3,7.5-7.5,7.5C28,201.2,28,201.2,27.9,201.2z M27.9,186.4c-4,0-7.2,3.3-7.2,7.4s3.3,7.2,7.4,7.2c4,0,7.2-3.3,7.2-7.3
			c0-4-3.2-7.3-7.2-7.3C28,186.4,28,186.4,27.9,186.4z M27.9,198.7c-2.9,0-4.8-2.1-4.8-5s1.9-5,4.8-5s4.8,2.1,4.8,5
			S30.8,198.7,27.9,198.7L27.9,198.7z M27.9,188.9c-2.7,0-4.5,1.9-4.5,4.8s1.8,4.8,4.5,4.8s4.5-1.9,4.5-4.8S30.6,188.9,27.9,188.9
			L27.9,188.9z"/>
		<path id="XMLID_98_" class="st7" d="M40.4,186.6h2.7v2.2h0.1c0.9-1.7,2.7-2.7,4.6-2.5c2.7,0,5.1,1.6,5.1,5.4v9.1h-2.7v-8.3
			c0-2.6-1.5-3.6-3.2-3.6c-2.2,0-3.9,1.4-3.9,4.7v7.3h-2.6V186.6z"/>
		<path id="XMLID_95_" class="st7" d="M53,200.8H50v-8.5c0-3.2-2.2-3.5-3.1-3.5c-2.4,0-3.8,1.7-3.8,4.6v7.4h-2.9v-14.4h2.9v1.9
			c1-1.5,2.8-2.3,4.6-2.2c2.5,0,5.3,1.4,5.3,5.5V200.8z M50.3,200.6h2.4v-9c0-2.5-1.3-5.3-5-5.3c-1.9-0.1-3.6,0.8-4.5,2.5v0.1h-0.3
			v-2.2h-2.4v13.8h2.4v-7.2c0-4.4,2.8-4.8,4.1-4.8c2.1,0,3.3,1.4,3.3,3.8L50.3,200.6z"/>
		<path id="XMLID_92_" class="st7" d="M73,200.6c0,4.2-3.1,7.3-7.7,7.3c-2.5,0.1-5-0.8-6.9-2.5l1.8-2.3c1.3,1.5,3.1,2.3,5,2.3
			c4,0,5.1-2.5,5.1-4.9v-2.1h-0.1c-1.1,1.6-2.9,2.6-4.9,2.5c-3.9,0.1-7.1-3-7.2-6.8c0-0.1,0-0.3,0-0.4c0-4.2,2.8-7.4,7.2-7.4
			c1.9,0,3.7,0.8,4.9,2.4h0.1v-2.1H73L73,200.6z M61,193.7c-0.1,2.6,1.9,4.7,4.4,4.9c2.6,0.1,4.7-1.9,4.9-4.4c0-0.1,0-0.3,0-0.4
			c0-2.9-1.8-4.9-4.6-4.9S61,190.8,61,193.7z"/>
		<path id="XMLID_87_" class="st7" d="M65.3,208c-2.6,0.1-5.1-0.8-7-2.6l-0.1-0.1l2-2.5l0.1,0.1c1.2,1.4,3,2.3,4.9,2.2
			c4.3,0,5-3,5-4.7v-1.8c-1.1,1.5-2.9,2.4-4.8,2.3c-4,0.1-7.2-3.1-7.3-7.1c0-0.1,0-0.2,0-0.3c0-4.4,3-7.5,7.3-7.5
			c1.9,0,3.6,0.8,4.8,2.2v-1.8h2.9v14.1C73.1,205,69.9,208,65.3,208z M58.5,205.3c1.8,1.7,4.3,2.5,6.7,2.4c4.5,0,7.6-2.9,7.6-7.2
			v-13.8h-2.4v2.1h-0.3v-0.1c-1.1-1.5-2.9-2.4-4.8-2.3c-4.1,0-7,3-7,7.3c-0.1,3.8,2.9,7,6.7,7.1c0.1,0,0.2,0,0.4,0
			c1.9,0.1,3.7-0.9,4.7-2.5v-0.1h0.3v2.2c0,1.9-0.7,5-5.2,5c-1.9,0-3.7-0.8-5-2.2L58.5,205.3z M65.7,198.5c-2.5,0.2-4.6-1.7-4.8-4.2
			c0-0.2,0-0.4,0-0.6c0-3,1.9-5,4.8-5s4.8,2.1,4.8,5c0.2,2.5-1.7,4.7-4.2,4.8C66.1,198.5,65.9,198.5,65.7,198.5z M65.7,188.9
			c-2.7,0-4.5,1.9-4.5,4.8c0,2.5,2,4.5,4.5,4.5c2.5,0,4.5-2,4.5-4.5C70.2,190.8,68.4,188.9,65.7,188.9z"/>
		<path id="XMLID_86_" class="st7" d="M79.1,186.6h2.5v2.2h0.1c0.9-1.6,2.7-2.6,4.5-2.6c1.9-0.1,3.6,0.9,4.4,2.6
			c0.9-1.6,2.6-2.6,4.5-2.6c4.3,0,5.4,3.1,5.4,6.3v8.2h-2.7v-7.9c0-2.1-0.4-4.1-3.1-4.1s-3.6,1.8-3.6,4.3v7.7h-2.6v-7.4
			c0-2.7-0.4-4.6-3-4.6c-1.9,0-3.7,1.5-3.7,4.6v7.3h-2.7V186.6z"/>
		<path id="XMLID_83_" class="st7" d="M100.6,200.8h-2.9v-8c0-2-0.3-4-2.9-4c-2.9,0-3.5,2.2-3.5,4.1v7.8h-2.9v-7.5
			c0-2.8-0.5-4.5-2.9-4.5c-1.6,0-3.5,1.2-3.5,4.5v7.4H79v-14.4h2.7v1.9c1-1.4,2.7-2.3,4.5-2.2c1.8-0.1,3.6,0.9,4.4,2.5
			c1-1.5,2.6-2.5,4.5-2.5c3.6,0,5.5,2.1,5.5,6.4L100.6,200.8z M97.9,200.6h2.4v-8.1c0-4.1-1.7-6.2-5.2-6.2c-1.8,0-3.5,1-4.3,2.5
			l-0.1,0.2l-0.1-0.2c-0.8-1.6-2.5-2.7-4.3-2.5c-1.8,0-3.5,0.9-4.4,2.5v0.1h-0.3v-2.2h-2.3v13.8h2.4v-7.2c0-3.5,2.1-4.8,3.8-4.8
			c2.9,0,3.1,2.3,3.1,4.7v7.3H91V193c0-2.9,1.3-4.4,3.7-4.4c2.8,0,3.2,2.3,3.2,4.2L97.9,200.6z"/>
		<path id="XMLID_80_" class="st7" d="M112.8,186.2c4.1,0,7.4,3.4,7.3,7.5s-3.4,7.4-7.5,7.3c-4.1,0-7.3-3.4-7.3-7.4
			C105.3,189.6,108.7,186.2,112.8,186.2C112.8,186.2,112.8,186.2,112.8,186.2z M112.8,198.6c2.9,0,4.6-2.1,4.6-4.9s-1.8-4.9-4.6-4.9
			c-2.9,0-4.6,2.1-4.6,4.9S110,198.6,112.8,198.6L112.8,198.6z"/>
		<path id="XMLID_75_" class="st7" d="M112.8,201.2c-4.2-0.1-7.5-3.5-7.4-7.6c0.1-4.2,3.5-7.5,7.6-7.4c4.1,0.1,7.5,3.4,7.4,7.5
			c0,4.1-3.3,7.5-7.4,7.5C113,201.2,112.9,201.2,112.8,201.2z M112.8,186.4c-4,0.1-7.2,3.4-7.2,7.4c0.1,4,3.4,7.2,7.4,7.2
			c4-0.1,7.2-3.3,7.2-7.3c0-4-3.2-7.3-7.2-7.3C113,186.4,112.9,186.4,112.8,186.4z M112.8,198.7c-2.9,0-4.8-2.1-4.8-5s1.9-5,4.8-5
			c2.9,0,4.8,2.1,4.8,5S115.7,198.7,112.8,198.7L112.8,198.7z M112.8,188.9c-2.7,0-4.5,1.9-4.5,4.8s1.8,4.8,4.5,4.8
			c2.7,0,4.5-1.9,4.5-4.8S115.5,188.9,112.8,188.9L112.8,188.9z"/>
		<path id="XMLID_72_" class="st7" d="M125.8,186.6h2.7v2.1l0,0c1.2-1.5,3-2.4,4.9-2.4c4.4,0,7.2,3.3,7.2,7.4s-2.8,7.4-7.2,7.4
			c-1.9,0.1-3.8-0.8-4.9-2.4l0,0v10.4h-2.7L125.8,186.6z M128.5,193.7c0,2.9,1.8,4.9,4.6,4.9s4.6-2.1,4.6-4.9s-1.8-4.9-4.6-4.9
			S128.5,190.8,128.5,193.7z"/>
		<path id="XMLID_67_" class="st7" d="M128.6,209.2h-2.9v-22.8h2.9v1.8c1.2-1.4,3-2.2,4.8-2.2c4.3,0,7.3,3.1,7.3,7.5
			c0,4.5-3,7.5-7.3,7.5c-1.9,0-3.6-0.8-4.8-2.2V209.2z M125.9,209h2.4v-10.4h0.3v0.1c1.1,1.5,2.9,2.4,4.8,2.3c4.1,0,7-3,7-7.3
			s-2.9-7.3-7-7.3c-1.9,0-3.7,0.8-4.8,2.3v0.1h-0.3v-2.1h-2.4V209z M133.1,198.7c-2.9,0-4.8-2.1-4.8-5s1.9-5,4.8-5s4.8,2.1,4.8,5
			S136,198.7,133.1,198.7L133.1,198.7z M133.1,188.9c-2.7,0-4.5,1.9-4.5,4.8s1.8,4.8,4.5,4.8c2.7,0,4.5-1.9,4.5-4.8
			S135.8,188.9,133.1,188.9L133.1,188.9z"/>
		<path id="XMLID_66_" class="st7" d="M145.5,186.6h2.7v2.2h0.1c0.8-1.6,2.5-2.5,4.2-2.5c0.4,0,0.8,0.1,1.2,0.2l-0.1,2.9
			c-0.4-0.1-0.9-0.2-1.3-0.2c-2.6,0-4.1,1.4-4.1,4.5v7.1h-2.7L145.5,186.6z"/>
		<path id="XMLID_63_" class="st7" d="M148.3,200.8h-2.9v-14.4h2.9v1.9c0.9-1.4,2.5-2.3,4.2-2.3c0.4,0,0.8,0.1,1.2,0.2h0.1l-0.1,3.1
			h-0.2c-0.4-0.1-0.8-0.2-1.3-0.2c-2.6,0-3.9,1.4-3.9,4.4L148.3,200.8z M145.6,200.6h2.4v-7c0-3.1,1.4-4.7,4.2-4.7
			c0.4,0,0.8,0.1,1.2,0.2l0.1-2.6c-0.3-0.1-0.7-0.1-1-0.1c-1.7,0-3.3,0.9-4.1,2.5v0.1h-0.3v-2.2h-2.4L145.6,200.6z"/>
		<path id="XMLID_60_" class="st7" d="M163.6,186.2c4.1,0,7.4,3.4,7.3,7.5c0,4.1-3.4,7.4-7.5,7.3c-4.1,0-7.3-3.4-7.3-7.4
			C156.1,189.6,159.4,186.2,163.6,186.2C163.5,186.2,163.6,186.2,163.6,186.2z M163.6,198.6c2.9,0,4.6-2.1,4.6-4.9s-1.8-4.9-4.6-4.9
			s-4.6,2.1-4.6,4.9S160.7,198.6,163.6,198.6L163.6,198.6z"/>
		<path id="XMLID_55_" class="st7" d="M163.6,201.2c-4.2,0-7.5-3.5-7.5-7.6c0-4.2,3.5-7.5,7.6-7.5c4.1,0,7.5,3.4,7.5,7.5
			c0,4.1-3.3,7.5-7.5,7.5C163.7,201.2,163.7,201.2,163.6,201.2z M163.6,186.4c-4,0-7.2,3.3-7.2,7.4c0,4,3.3,7.2,7.4,7.2
			c4,0,7.2-3.3,7.2-7.3c0-4-3.2-7.3-7.2-7.3C163.7,186.4,163.7,186.4,163.6,186.4z M163.6,198.7c-2.9,0-4.8-2.1-4.8-5s1.9-5,4.8-5
			s4.8,2.1,4.8,5S166.5,198.7,163.6,198.7L163.6,198.7z M163.6,188.9c-2.7,0-4.5,1.9-4.5,4.8s1.8,4.8,4.5,4.8c2.7,0,4.5-1.9,4.5-4.8
			S166.3,188.9,163.6,188.9L163.6,188.9z"/>
		<path id="XMLID_52_" class="st7" d="M178.9,186.6v16.1c0,1.5,0,5.1-4.3,5.1c-0.6,0-1.2-0.1-1.7-0.3l0.3-2.5
			c0.3,0.1,0.7,0.2,1.1,0.2c1.5,0,2-1,2-2.7v-16H178.9z M177.5,179.6c1.1,0,2,0.9,2,2c0,1.1-0.9,2-2,2c-1.1,0-2-0.9-2-2c0,0,0,0,0,0
			C175.6,180.5,176.5,179.6,177.5,179.6L177.5,179.6z"/>
		<path id="XMLID_47_" class="st7" d="M174.6,208c-0.6,0-1.2-0.1-1.8-0.3h-0.1l0.3-2.7l0.1,0.1c0.3,0.1,0.7,0.2,1,0.2
			c1.3,0,1.8-0.8,1.8-2.6v-16.2h2.9v16.2C179,204.2,179,208,174.6,208z M173,207.5c0.5,0.2,1,0.2,1.6,0.2c4.2,0,4.2-3.6,4.2-5v-16
			h-2.4v15.9c0,2-0.6,2.9-2.1,2.9c-0.4,0-0.7-0.1-1-0.2L173,207.5z M177.5,183.6c-1.1,0-2.1-0.9-2.1-2.1c0-1.1,0.9-2.1,2.1-2.1
			s2.1,0.9,2.1,2.1C179.6,182.7,178.7,183.6,177.5,183.6z M177.5,179.7c-1,0-1.8,0.8-1.8,1.8c0,1,0.8,1.8,1.8,1.8s1.8-0.8,1.8-1.8v0
			C179.4,180.5,178.6,179.7,177.5,179.7z"/>
		<path id="XMLID_44_" class="st7" d="M187.1,194.6c0,2.5,2.3,4.1,4.8,4.1c1.6,0,3-0.8,3.9-2.1l2.1,1.5c-1.5,1.9-3.8,3-6.2,2.9
			c-4.5,0-7.3-3.2-7.3-7.4c-0.1-4,3-7.3,6.9-7.4c0.1,0,0.2,0,0.3,0c5,0,6.9,3.8,6.9,7.4v0.9L187.1,194.6z M195.6,192.5
			c-0.1-2.4-1.4-4.1-4.1-4.1c-2.3,0-4.2,1.8-4.4,4.1H195.6z"/>
		<path id="XMLID_39_" class="st7" d="M191.5,201.2c-4,0.1-7.3-3-7.4-7c0-0.2,0-0.4,0-0.6c-0.1-4,3-7.4,7.1-7.5c0.1,0,0.2,0,0.3,0
			c5.1,0,7,4.1,7,7.6v1.1h-11.3c0.1,2.4,2.4,3.8,4.6,3.8c1.5,0,2.9-0.8,3.8-2.1l0.1-0.1l2.2,1.7l-0.1,0.1
			C196.4,200.2,194,201.3,191.5,201.2z M191.5,186.4c-3.9-0.1-7.1,2.9-7.2,6.8c0,0.2,0,0.3,0,0.5c-0.2,3.8,2.7,7.1,6.5,7.3
			c0.2,0,0.5,0,0.7,0c2.3,0.1,4.6-0.9,6.1-2.7l-1.8-1.4c-0.9,1.3-2.3,2-3.9,2.1c-2.4,0-4.9-1.6-4.9-4.2v-0.1h11.3v-0.8
			C198.4,190.3,196.5,186.4,191.5,186.4L191.5,186.4z M195.6,192.6h-8.7v-0.1c0.1-2.4,2.1-4.3,4.5-4.2c2.6,0,4.1,1.6,4.2,4.2V192.6z
			 M187.2,192.4h8.2c0.1-2-1.5-3.8-3.5-3.9c-0.1,0-0.3,0-0.4,0C189.3,188.5,187.5,190.2,187.2,192.4L187.2,192.4z"/>
		<path id="XMLID_38_" class="st7" d="M212.7,190.4c-0.9-1-2.2-1.6-3.5-1.6c-2.9,0-4.4,2.3-4.4,5c-0.1,2.5,1.8,4.6,4.2,4.8
			c0.1,0,0.2,0,0.3,0c1.3,0,2.6-0.5,3.4-1.6l1.9,1.9c-1.4,1.5-3.3,2.3-5.4,2.2c-4.1,0-7.4-3.3-7.4-7.4c0-4.1,3.3-7.4,7.4-7.4
			c2-0.1,4,0.8,5.4,2.2L212.7,190.4z"/>
		<path id="XMLID_35_" class="st7" d="M209.3,201.2c-4.2,0-7.5-3.4-7.5-7.5s3.4-7.5,7.5-7.5c2.1,0,4.1,0.8,5.5,2.3l0.1,0.1l-2.2,2.1
			l-0.1-0.1c-0.8-1-2.1-1.6-3.4-1.5c-3,0-4.3,2.5-4.3,4.9c-0.1,2.4,1.7,4.5,4.1,4.7c0.1,0,0.2,0,0.3,0c1.3,0,2.5-0.5,3.3-1.5
			l0.1-0.1l2.1,2.1l-0.1,0.1C213.3,200.5,211.3,201.3,209.3,201.2z M209.3,186.4c-4,0-7.3,3.3-7.3,7.3s3.3,7.3,7.3,7.3
			c1.9,0.1,3.8-0.7,5.2-2.1l-1.8-1.7c-0.8,1-2.1,1.6-3.4,1.5c-2.6,0-4.7-2-4.7-4.6c0-0.1,0-0.2,0-0.3c0-2.5,1.4-5.1,4.5-5.1
			c1.3,0,2.6,0.5,3.5,1.5l1.8-1.7C213.1,187.1,211.2,186.4,209.3,186.4z"/>
		<path id="XMLID_34_" class="st7" d="M226.1,188.9h-3.8v6.4c0,1.6,0,3.2,2.1,3.2c0.7,0,1.3-0.1,1.9-0.4v2.4
			c-0.8,0.3-1.6,0.5-2.4,0.5c-4.1,0-4.2-2.5-4.2-4.8v-7.4h-3.1v-2.3h3.1v-4h2.7v4h3.8V188.9z"/>
		<path id="XMLID_31_" class="st7" d="M223.7,201.2c-4.3,0-4.3-2.7-4.3-4.9v-7.2h-3.1v-2.6h3.1v-4h2.9v4h3.8v2.6h-3.8v6.3
			c0,1.6,0,3.1,1.9,3.1c0.6,0,1.3-0.1,1.8-0.4l0.2-0.1v2.7h-0.1C225.4,201,224.6,201.2,223.7,201.2z M216.5,188.8h3.1v7.5
			c0,2.2,0,4.7,4.1,4.7c0.8,0,1.6-0.1,2.3-0.4v-2.1c-0.6,0.2-1.2,0.3-1.8,0.3c-2.2,0-2.2-1.8-2.2-3.4v-6.5h3.8v-2.1h-3.8v-4h-2.4v4
			h-3.1L216.5,188.8z"/>
		<path id="XMLID_30_" class="st7" d="M231.1,198.9c0-1.1,0.9-2,2-2s2,0.9,2,2c0,1.1-0.9,2-2,2l0,0C232,200.9,231.1,200,231.1,198.9
			z"/>
		<path id="XMLID_27_" class="st7" d="M233.1,201c-1.1,0-2.1-0.9-2.1-2.1s0.9-2.1,2.1-2.1s2.1,0.9,2.1,2.1
			C235.1,200.1,234.2,201,233.1,201z M233.1,197.1c-1,0-1.8,0.8-1.8,1.8s0.8,1.8,1.8,1.8s1.8-0.8,1.8-1.8v0
			C234.9,197.9,234.1,197.1,233.1,197.1z"/>
		<path id="XMLID_24_" class="st7" d="M247.5,186.2c4.1,0,7.4,3.4,7.3,7.5c0,4.1-3.4,7.4-7.5,7.3c-4.1,0-7.3-3.4-7.3-7.4
			c0-4.1,3.3-7.4,7.4-7.4C247.4,186.2,247.4,186.2,247.5,186.2z M247.5,198.6c2.9,0,4.6-2.1,4.6-4.9s-1.8-4.9-4.6-4.9
			s-4.6,2.1-4.6,4.9S244.6,198.6,247.5,198.6L247.5,198.6z"/>
		<path id="XMLID_19_" class="st7" d="M247.5,201.2c-4.2,0-7.5-3.5-7.5-7.6c0-4.2,3.5-7.5,7.6-7.5c4.1,0,7.5,3.4,7.5,7.5
			c0,4.1-3.3,7.5-7.5,7.5C247.6,201.2,247.5,201.2,247.5,201.2z M247.5,186.4c-4,0-7.2,3.3-7.2,7.4c0,4,3.3,7.2,7.4,7.2
			c4,0,7.2-3.3,7.2-7.3c0-4-3.2-7.3-7.2-7.3C247.6,186.4,247.5,186.4,247.5,186.4z M247.5,198.7c-2.9,0-4.8-2.1-4.8-5s1.9-5,4.8-5
			c2.9,0,4.8,2.1,4.8,5S250.3,198.7,247.5,198.7L247.5,198.7z M247.5,188.9c-2.7,0-4.5,1.9-4.5,4.8s1.8,4.8,4.5,4.8
			c2.7,0,4.5-1.9,4.5-4.8S250.2,188.9,247.5,188.9L247.5,188.9z"/>
		<path id="XMLID_18_" class="st7" d="M259.9,186.6h2.7v2.2h0.1c0.8-1.6,2.4-2.5,4.2-2.5c0.4,0,0.8,0.1,1.2,0.2l-0.1,2.9
			c-0.4-0.1-0.9-0.2-1.3-0.2c-2.6,0-4,1.4-4,4.5v7.1h-2.7V186.6z"/>
		<path id="XMLID_15_" class="st7" d="M262.7,200.8h-2.9v-14.4h2.9v1.9c0.9-1.4,2.5-2.3,4.2-2.3c0.4,0,0.8,0.1,1.2,0.2h0.1l-0.1,3.1
			h-0.2c-0.4-0.1-0.8-0.2-1.3-0.2c-2.6,0-3.9,1.4-3.9,4.4V200.8z M260,200.6h2.4v-7c0-3.1,1.4-4.7,4.2-4.7c0.4,0,0.8,0.1,1.2,0.2
			l0.1-2.6c-0.3-0.1-0.7-0.1-1-0.1c-1.7,0-3.3,0.9-4.1,2.5v0.1h-0.3v-2.2h-2.4L260,200.6z"/>
		<path id="XMLID_12_" class="st7" d="M285.9,200.6c0,4.2-3.1,7.3-7.7,7.3c-2.5,0.1-5-0.8-6.9-2.5l1.8-2.3c1.3,1.5,3.1,2.3,5,2.3
			c4,0,5.1-2.5,5.1-4.9v-2.1h-0.1c-1.1,1.6-2.9,2.6-4.9,2.5c-3.9,0.1-7.1-3-7.2-6.8c0-0.1,0-0.3,0-0.4c0-4.2,2.8-7.4,7.2-7.4
			c1.9,0,3.7,0.9,4.9,2.4h0.1v-2.1h2.7L285.9,200.6z M273.9,193.7c-0.1,2.6,1.9,4.7,4.4,4.9c2.6,0.1,4.7-1.9,4.9-4.4
			c0-0.1,0-0.3,0-0.4c0-2.9-1.8-4.9-4.6-4.9C275.7,188.8,273.9,190.8,273.9,193.7L273.9,193.7z"/>
		<path id="XMLID_7_" class="st7" d="M278.2,208c-2.6,0.1-5.1-0.8-7-2.6l-0.1-0.1l2-2.5l0.1,0.1c1.2,1.4,3,2.3,4.9,2.2
			c4.3,0,5-3,5-4.7v-1.8c-1.1,1.5-2.9,2.4-4.8,2.3c-3.9,0.1-7.2-3-7.3-6.9c0-0.1,0-0.3,0-0.4c0-4.4,3-7.5,7.3-7.5
			c1.9,0,3.6,0.8,4.8,2.2v-1.8h2.9v14.1C286,205,282.8,208,278.2,208z M271.4,205.3c1.8,1.7,4.3,2.5,6.7,2.4c4.5,0,7.6-2.9,7.6-7.2
			v-13.8h-2.4v2.1h-0.3v-0.1c-1.1-1.5-2.9-2.4-4.8-2.3c-4.1,0-7,3-7,7.3c-0.1,3.8,2.8,7,6.6,7.1c0.1,0,0.3,0,0.4,0
			c1.9,0.1,3.7-0.9,4.7-2.5v-0.1h0.3v2.2c0,1.9-0.7,5-5.2,5c-1.9,0-3.8-0.8-5-2.2L271.4,205.3z M278.6,198.5
			c-2.5,0.2-4.6-1.7-4.8-4.2c0-0.2,0-0.4,0-0.6c0-3,1.9-5,4.8-5c2.9,0,4.8,2.1,4.8,5c0.2,2.5-1.7,4.6-4.1,4.8
			C279,198.5,278.8,198.5,278.6,198.5z M278.6,188.9c-2.7,0-4.5,1.9-4.5,4.8c0,2.5,2,4.5,4.5,4.5s4.5-2,4.5-4.5c0,0,0,0,0,0
			C283.1,190.8,281.2,188.9,278.6,188.9z"/>
		<path id="XMLID_6_" class="st0" d="M189.1,85.9c-4.2,2.1-8.9,3.2-13.7,3.1c-10.3,0-17.6-6.7-17.6-17.2s7.4-17.1,17.6-17.1
			c5.1,0,9.7,1.1,13,4.2l-5.1,5.5c-1.9-2.1-4.3-3.1-7.9-3.1c-6.2,0-10.2,4.4-10.2,10.5c0,6.1,4,10.5,10.2,10.5
			c2.4,0,4.7-0.5,6.8-1.6v-5.3h-5.9v-6.6h12.8V85.9z"/>
		<path id="XMLID_5_" class="st0" d="M197.5,55.5h10.9l7.5,21.3h0.1l7.6-21.3h10.9v32.7h-7.2V63.1h-0.1l-8.6,25.1H213l-8.2-25.1
			h-0.1v25.1h-7.2L197.5,55.5z"/>
		<path id="XMLID_2_" class="st0" d="M257.5,54.7c10.3,0,17.6,6.7,17.6,17.2S267.7,89,257.5,89c-10.2,0-17.6-6.7-17.6-17.2
			S247.3,54.7,257.5,54.7z M257.5,82.4c6.2,0,10.2-4.4,10.2-10.5c0-6.1-4-10.5-10.2-10.5c-6.1,0-10.2,4.4-10.2,10.5
			C247.4,78,251.4,82.4,257.5,82.4z"/>
	</g>
</g>
</svg>
