<svg id="Layer_1" data-name="Layer 1" xmlns="http://www.w3.org/2000/svg" viewBox="0 0 313.57 417.53"><defs><style>.cls-1{fill:#0f2544;}</style></defs><title>vegan</title><path class="cls-1" d="M101.21,217.71l17.91,51.68c1,3.38,2.34,6.5,8.32,6.5h22.85c5.2,0,6.5-2.6,8.32-6.76l4.41-12.2S193,174.05,202,149c19.62-6.15,43.21-19,60.15-39C297.87,67.61,312,8.65,312,8.65s-96.2-24.9-127,21.67-23.41,101.07-23,102.73c46-72.82,78-80.8,78-80.8s-53.66,52-70.22,83.92a13,13,0,0,0-2.44,4.65c0,.26-28.42,85.46-28.42,85.46L87.69,74.85c-1.81-3.37-3.11-6.75-8.3-6.75H59.12c-5.71,0-8.57,2.86-8.57,8.31a8.59,8.59,0,0,0,1.05,4.42C70.55,127.58,84.84,171,101.21,217.71Z"/><path class="cls-1" d="M249.45,146.85a121.85,121.85,0,1,1-202.77-22Q43.4,115.8,40,106.69A138.83,138.83,0,1,0,263.54,137,131.43,131.43,0,0,1,249.45,146.85Z"/><path class="cls-1" d="M72.63,365.44H67.81c-.91,0-1.58.55-2,1.71,0,.05-.07.06-.1.14l0-.26-11.9,35.53L41.91,367c-.42-.79-.73-1.59-2-1.59H35.21a1.77,1.77,0,0,0-2,1.95,2,2,0,0,0,.25,1c4.45,11,7.8,21.15,11.63,32.12l4.22,12.13a1.75,1.75,0,0,0,1.94,1.53H56.6c1.22,0,1.52-.61,1.95-1.59l1-2.86,6.27-17.37,6.52-18.11c1.4-4,2.19-6.7,2.19-6.89A2.09,2.09,0,0,0,72.63,365.44Z"/><path class="cls-1" d="M111.14,406.1H87.5V392.51h20.29a1.91,1.91,0,0,0,2-2v-4.15a1.9,1.9,0,0,0-2-2H87.5V373.55h22.85c2.14,0,2.44-.18,2.44-2.38v-3.35c0-1.22,0-2.38-2-2.38H81.35a2,2,0,0,0-2.08,1.95l.12,44.86a1.87,1.87,0,0,0,2,2h30.23c2,0,2-1.22,2-2.44v-3.29C113.58,406.28,113.28,406.1,111.14,406.1Z"/><path class="cls-1" d="M159.6,388.79c0-1.28-.61-2-1.88-2H141.5a1.74,1.74,0,0,0-1.95,2v3.78a2.06,2.06,0,0,0,1.95,1.95H152c0,.06-.12.85-.3,2.38a12.46,12.46,0,0,1-.91,3.53c-2.14,4.39-6.53,6.52-11.22,6.52a12,12,0,0,1-12-12.61v-9.88a12,12,0,0,1,12-11.95c4.88,0,8.41,2.57,10.66,6.71l-.06-.06a1.9,1.9,0,0,0,1.77,1.16h4.39c1.64,0,2.45-1.16,1.89-2.44-3.41-7.92-10.24-13.29-18.65-13.29a20,20,0,0,0-19.93,19.87v9.88c0,12.19,8.9,20.11,19.93,20.41a18.28,18.28,0,0,0,15.72-7.07,19.81,19.81,0,0,0,3.54-6.7,30.34,30.34,0,0,0,.67-4.27c.18-1.7.24-2.74.24-3.17,0-.79,0-1.58-.06-2.5S159.6,389.7,159.6,388.79Z"/><path class="cls-1" d="M188.25,367c-.43-.79-.67-1.59-1.89-1.59H181c-1.23,0-1.52.68-2,1.59-1.58,3.84-15.54,45-15.54,45.22a2,2,0,0,0,2,2h4.2c1.46,0,1.59-.61,2-1.59l3.35-9.39,15-6.64,5.55,16c.44.92.67,1.59,2,1.59H202a1.74,1.74,0,0,0,1.94-2,4.65,4.65,0,0,0,0-.73Zm-9.51,25.17,4.94-13.83c.67,1.89,1,3.17,1.46,4.38.19.68.43,1.22.61,1.89s.68,1.89,1.4,3.84Z"/><path class="cls-1" d="M243.53,365.44h-4.14a2,2,0,0,0-2,1.95v30.42l-20.91-31.45v.06a1.76,1.76,0,0,0-1.65-1h-4.51a2,2,0,0,0-1.95,1.95l.12,44.86a1.86,1.86,0,0,0,1.83,2h4.21a2,2,0,0,0,2-2V381.9c7.49,11.1,13.84,20.48,21.15,31.39a1.83,1.83,0,0,0,1.71.92h4.14a2,2,0,0,0,2-2V367.39A2,2,0,0,0,243.53,365.44Z"/></svg>