<svg id="Layer_1" data-name="Layer 1" xmlns="http://www.w3.org/2000/svg" viewBox="0 0 343.45 353.38"><defs><style>.cls-1{fill:#0f2544;}</style></defs><title>gluten-free</title><path class="cls-1" d="M71.81,13.28a18.76,18.76,0,0,0-9.61-2.69c-8.05,0-13.16,5-13.18,12.91s5.27,13,13.33,13a23.64,23.64,0,0,0,9.84-2.29l.62,9a42.73,42.73,0,0,1-11.56,1.56c-14.69,0-23.2-8-23.18-21.29,0-12.69,8.55-20.82,22.43-20.8A32.4,32.4,0,0,1,72.75,4.87Z"/><path class="cls-1" d="M107.52,32,86.61,32c.42,3.82,3.42,6.11,8.44,6.12a23.5,23.5,0,0,0,9.84-2.5v7.3a31,31,0,0,1-10.82,1.79c-10.92,0-17.31-6.16-17.3-16.24,0-9.27,6.12-15.17,15.67-15.16,9.71,0,15.11,5.87,15.09,16.23Zm-15-12.45c-3.16,0-5.5,2.29-6,6.39l12,0c-.39-4.11-2.76-6.4-6-6.41"/><path class="cls-1" d="M133.78,22.52A8.18,8.18,0,0,0,130.6,22c-4.78,0-7.37,3.12-7.37,9.24l0,12.71H113l0-29.8,9.11,0v5.73c2-4.41,5-6.52,9.07-6.51a26.91,26.91,0,0,1,3.08.36Z"/><path class="cls-1" d="M153.05,14.19h7.31v7.39H153V31.81c0,4.35,1.19,6,4.74,6a12.8,12.8,0,0,0,2.56-.45l.14,6.67a27.59,27.59,0,0,1-6.2.74c-8.21,0-11.47-3.91-11.46-12.72l0-10.51h-5.75V14.17h6.34V7.29l9.63-3.22Z"/><path class="cls-1" d="M176.21,8.83l-10.2,0V.53l10.21,0ZM176.16,44H166l0-29.8,10.21,0Z"/><path class="cls-1" d="M204.26,7.66a6.52,6.52,0,0,0-2.56-.56c-2.89,0-4.18,1.66-4.19,5.38v1.78h7.13v7.45l-7.13,0,0,22.35H187.4l0-22.35h-6.27l0-7.45h6.26v-2.7C187.46,3.9,191.4,0,199.1,0a22.17,22.17,0,0,1,5.78.69Z"/><path class="cls-1" d="M219.49,8.89H209.31V.6H219.5Zm-.06,35.2-10.18,0,.05-29.79h10.18Z"/><path class="cls-1" d="M256.29,32.25l-20.9,0c.4,3.82,3.4,6.11,8.44,6.12a23.66,23.66,0,0,0,9.86-2.5v7.3a31.1,31.1,0,0,1-10.84,1.79c-10.93,0-17.31-6.16-17.29-16.24,0-9.28,6.1-15.17,15.66-15.16s15.1,5.87,15.08,16.23Zm-15-12.45c-3.2,0-5.53,2.29-6,6.39h12c-.4-4.1-2.79-6.39-6-6.4"/><path class="cls-1" d="M293.74.72l-.06,43.47h-9.15v-6a11.82,11.82,0,0,1-10.77,6.39c-7.82,0-13.25-6.2-13.24-15.77,0-9.37,5.25-15.27,13.16-15.26a11.34,11.34,0,0,1,9.84,5l0-17.84ZM270.93,29.15c0,4.93,2.48,7.88,6.2,7.89,3.9,0,6.3-2.94,6.31-8s-2.56-8-6.51-8c-3.31,0-6,3.11-6,8.11"/><path class="cls-1" d="M37.78,317.85a21.66,21.66,0,0,0-10.66-2.78c-8.81,0-14.21,5.19-14.22,13.58,0,8.18,4.91,13.28,12.49,13.29a14.71,14.71,0,0,0,4.17-.49v-8.34H23.4v-7.62l16.15,0,0,22.4a49.41,49.41,0,0,1-13.6,1.78C10.22,349.66,2,342.42,2,328.93s8.69-21.46,23.56-21.43a45,45,0,0,1,13.14,2Z"/><rect class="cls-1" x="30.59" y="322.01" width="43.43" height="10.19" transform="matrix(0, -1, 1, 0, -274.88, 378.93)"/><path class="cls-1" d="M74.84,319.06l0,15c0,4.71,1.62,7,5,7,3.79,0,5.86-3,5.87-9.2l0-12.75,10.22,0,0,29.79H86.6v-5.56a12,12,0,0,1-10.74,6.06c-7.26,0-11.25-4.49-11.24-13.17l0-17.16Z"/><path class="cls-1" d="M116.68,319.12H124v7.33h-7.28v10.31c0,4.32,1.21,6,4.72,6a11.76,11.76,0,0,0,2.55-.47l.19,6.67a28.07,28.07,0,0,1-6.2.72c-8.24,0-11.5-3.88-11.49-12.68l0-10.57h-5.73V319.1H107v-6.85L116.7,309Z"/><path class="cls-1" d="M158.61,337.08l-20.94,0c.41,3.81,3.41,6.08,8.44,6.09a23.74,23.74,0,0,0,9.84-2.47V348a32.1,32.1,0,0,1-10.8,1.72c-11,0-17.32-6.12-17.31-16.18,0-9.3,6.1-15.24,15.68-15.22s15.12,5.91,15.1,16.28Zm-15.06-12.46c-3.18,0-5.53,2.3-6,6.42l12,0c-.4-4.12-2.74-6.44-6-6.44"/><path class="cls-1" d="M195.29,349l-10.13,0,0-15.3c0-4.69-1.65-6.95-5-7s-5.85,2.87-5.86,7.92l0,14.33-10.22,0,0-29.79h9.28v5.34a12.05,12.05,0,0,1,10.76-6.15c7.27,0,11.19,4.57,11.18,13.19Z"/><rect class="cls-1" x="204.62" y="324.5" width="7.66" height="15.47" transform="matrix(0, -1, 1, 0, -124.1, 540.2)"/><polygon class="cls-1" points="248.66 308.92 248.65 316.53 232.92 316.51 232.91 325.1 247.94 325.12 247.93 332.78 232.89 332.76 232.87 349.08 222.09 349.07 222.15 308.88 248.66 308.92"/><path class="cls-1" d="M274.15,327.7a8.07,8.07,0,0,0-3.2-.54c-4.81,0-7.37,3.14-7.38,9.29l0,12.68-10.18,0,0-29.79h9.08V325c2.09-4.4,5-6.52,9.12-6.52.8,0,1.89.22,3,.37Z"/><path class="cls-1" d="M307.66,337.3l-20.92,0c.39,3.81,3.42,6.08,8.46,6.08a23.75,23.75,0,0,0,9.84-2.46l0,7.33A32.32,32.32,0,0,1,294.19,350c-11,0-17.31-6.13-17.29-16.18,0-9.3,6.1-15.24,15.65-15.22s15.13,5.91,15.11,16.28Zm-15.05-12.46c-3.18,0-5.48,2.3-6,6.42l12,0c-.4-4.12-2.77-6.44-6-6.44"/><path class="cls-1" d="M342.16,337.35l-20.9,0c.42,3.81,3.43,6.08,8.46,6.09a24,24,0,0,0,9.86-2.47v7.34A32.46,32.46,0,0,1,328.73,350c-11,0-17.33-6.12-17.31-16.18,0-9.3,6.11-15.24,15.66-15.22s15.1,5.91,15.08,16.28Zm-15-12.46c-3.18,0-5.52,2.3-6,6.42l12,0c-.4-4.12-2.77-6.44-6-6.44"/><path class="cls-1" d="M169.09,59.34A120.12,120.12,0,1,0,289,179.63,120.14,120.14,0,0,0,169.09,59.34m-.32,219.79a99.25,99.25,0,1,1,99.4-99.1,99.23,99.23,0,0,1-99.4,99.1"/><path class="cls-1" d="M166.1,159.85a39.64,39.64,0,0,0-19.58-5.14c-16.18,0-26.1,9.55-26.12,25,0,15,9,24.43,23,24.45a28,28,0,0,0,7.63-.9l0-15.44H139.65l0-13.92,29.73,0-.06,41.22a92.66,92.66,0,0,1-25,3.22c-28.86,0-44-13.34-43.95-38.17s15.94-39.36,43.31-39.32a83,83,0,0,1,24.15,3.66Z"/><polygon class="cls-1" points="232.07 142.91 232.05 156.96 203.17 156.92 203.15 172.7 230.75 172.74 230.73 186.76 203.13 186.72 203.08 216.76 183.26 216.73 183.37 142.84 232.07 142.91"/><path class="cls-1" d="M276.32,290.17a13.73,13.73,0,1,1-13.68-13.35A13.42,13.42,0,0,1,276.32,290.17Zm-24,0a10.35,10.35,0,0,0,10.42,10.67c5.86,0,10.18-4.72,10.18-10.59s-4.32-10.74-10.26-10.74A10.38,10.38,0,0,0,252.3,290.17Zm8.22,7h-3.09V283.83a26.37,26.37,0,0,1,5.13-.42,8.41,8.41,0,0,1,4.64,1,3.72,3.72,0,0,1,1.3,2.94,3.41,3.41,0,0,1-2.76,3.09v.16c1.3.49,2,1.46,2.44,3.25a10,10,0,0,0,1,3.35h-3.34a11.12,11.12,0,0,1-1.06-3.26c-.25-1.47-1.06-2.11-2.77-2.11h-1.47Zm.08-7.58h1.47c1.71,0,3.09-.56,3.09-2,0-1.22-.89-2-2.85-2a7.76,7.76,0,0,0-1.71.15Z"/></svg>