<svg id="Layer_1" data-name="Layer 1" xmlns="http://www.w3.org/2000/svg" viewBox="0 0 74 74"><defs><style>.cls-1{fill:#fff;}.cls-2{fill:#0f2544;}</style></defs><title>nut-free</title><path class="cls-1" d="M37,2A35,35,0,1,0,72,37,35,35,0,0,0,37,2Zm9.6,11.91h13v4.42H55.68V33.9H50.47V18.33H46.6ZM32,13.91h5.21V28.33a3.13,3.13,0,0,0,.42,1.94,1.59,1.59,0,0,0,2.3,0,3.13,3.13,0,0,0,.42-1.94V13.91H45.6V27a11.58,11.58,0,0,1-.45,3.5,5.33,5.33,0,0,1-1.3,2.24,4.52,4.52,0,0,1-2.12,1.15,13.77,13.77,0,0,1-5.81,0,4.51,4.51,0,0,1-2.13-1.15,5.33,5.33,0,0,1-1.3-2.24A11.58,11.58,0,0,1,32,27Zm-16.35,0h5.83l3.36,12.32h.05V13.91H29.8v20H24.09L20.62,21.55h-.06V33.9H15.69ZM37,70.48a33,33,0,0,1-33-33H70A33,33,0,0,1,37,70.48Z"/><path class="cls-2" d="M37,0A37,37,0,1,0,74,37,37,37,0,0,0,37,0Zm0,72A35,35,0,1,1,72,37,35,35,0,0,1,37,72Z"/><path class="cls-2" d="M30.9,43.64H29.33v4.73h1.38a2.68,2.68,0,0,0,1.84-.56,2.41,2.41,0,0,0,.65-1.9A2,2,0,0,0,30.9,43.64Z"/><path class="cls-2" d="M4,37.48a33,33,0,1,0,66,0Zm20.55,6.43H18.68v3.87H24.2v2.71H18.68v7.13H15.37V41.2h9.18Zm12.6,13.71H33.56a1.79,1.79,0,0,1-.32-.79,9.16,9.16,0,0,1-.09-.93l-.09-3.16a2.49,2.49,0,0,0-.49-1.51,1.76,1.76,0,0,0-1.47-.56H29.33v6.95H26V41.2h6.12a4.65,4.65,0,0,1,3.22,1,4.13,4.13,0,0,1,1.15,3.19,5,5,0,0,1-.67,2.7,3.07,3.07,0,0,1-2.07,1.35v0a3.09,3.09,0,0,1,1.82.81,3.41,3.41,0,0,1,.71,2c0,.31.05.64.07,1s0,.76.05,1.21c0,.87.07,1.54.13,2a1.3,1.3,0,0,0,.6.94Zm11.06,0h-9.4V41.2H48v2.71H42.12v3.87h5.52v2.71H42.12v4.42h6.09Zm11.07,0H49.87V41.2h9.18v2.71H53.18v3.87H58.7v2.71H53.18v4.42h6.1Z"/><polygon class="cls-2" points="20.56 21.55 20.62 21.55 24.09 33.9 29.8 33.9 29.8 13.91 24.93 13.91 24.93 26.23 24.88 26.23 21.52 13.91 15.69 13.91 15.69 33.9 20.56 33.9 20.56 21.55"/><path class="cls-2" d="M33.79,32.75a4.51,4.51,0,0,0,2.13,1.15,13.77,13.77,0,0,0,5.81,0,4.52,4.52,0,0,0,2.12-1.15,5.33,5.33,0,0,0,1.3-2.24A11.58,11.58,0,0,0,45.6,27V13.91H40.39V28.33A3.13,3.13,0,0,1,40,30.27a1.59,1.59,0,0,1-2.3,0,3.13,3.13,0,0,1-.42-1.94V13.91H32V27a11.58,11.58,0,0,0,.45,3.5A5.33,5.33,0,0,0,33.79,32.75Z"/><polygon class="cls-2" points="50.47 33.9 55.68 33.9 55.68 18.33 59.6 18.33 59.6 13.91 46.6 13.91 46.6 18.33 50.47 18.33 50.47 33.9"/><polygon class="cls-1" points="15.37 57.62 18.68 57.62 18.68 50.49 24.2 50.49 24.2 47.78 18.68 47.78 18.68 43.91 24.55 43.91 24.55 41.2 15.37 41.2 15.37 57.62"/><path class="cls-1" d="M36.55,56.54c-.06-.46-.1-1.13-.13-2,0-.45,0-.85-.05-1.21s0-.69-.07-1a3.41,3.41,0,0,0-.71-2,3.09,3.09,0,0,0-1.82-.81v0a3.07,3.07,0,0,0,2.07-1.35,5,5,0,0,0,.67-2.7,4.13,4.13,0,0,0-1.15-3.19,4.65,4.65,0,0,0-3.22-1H26V57.62h3.31V50.67H31.1a1.76,1.76,0,0,1,1.47.56,2.49,2.49,0,0,1,.49,1.51l.09,3.16a9.16,9.16,0,0,0,.09.93,1.79,1.79,0,0,0,.32.79h3.59v-.14A1.3,1.3,0,0,1,36.55,56.54Zm-4-8.73a2.68,2.68,0,0,1-1.84.56H29.33V43.64H30.9a2,2,0,0,1,2.3,2.27A2.41,2.41,0,0,1,32.55,47.81Z"/><polygon class="cls-1" points="42.12 50.49 47.64 50.49 47.64 47.78 42.12 47.78 42.12 43.91 47.98 43.91 47.98 41.2 38.81 41.2 38.81 57.62 48.21 57.62 48.21 54.91 42.12 54.91 42.12 50.49"/><polygon class="cls-1" points="53.18 50.49 58.7 50.49 58.7 47.78 53.18 47.78 53.18 43.91 59.05 43.91 59.05 41.2 49.87 41.2 49.87 57.62 59.28 57.62 59.28 54.91 53.18 54.91 53.18 50.49"/></svg>